<svg width="5480" height="5010" xmlns="http://www.w3.org/2000/svg" clip-rule="evenodd">

 <g>
  <title>background</title>
  <rect fill="none" id="canvas_background" height="5012" width="5482" y="-1" x="-1"/>
 </g>
 <g>
  <title>Layer 1</title>
  <g id="Capa_x0020_1">
   <metadata transform="translate(-2450.04833984375,-1425.028076171875) " id="CorelCorpID_0Corel-Layer"/>
   <g id="_2386045211552">
    <path id="svg_1" d="m2061.95166,3606.97192c23,-235 103,-176 477,-163c101,4 206,9 307,14c148,7 158,68 162,180c-4,102 -77,139 -181,134l-592,-29c-90,-2 -172,-21 -173,-136zm-273,-495l286,12l0,59l-352,-10l14,-365l62,-4l-10,308zm1597,131l-350,-12l-3,-59c83,-15 209,21 291,3l14,-301l58,3l-10,366zm-87,-896c23,72 -22,631 -22,762c-77,16 -486,-14 -594,-19l-835,-37c-7,-25 42,-1305 57,-1427c29,-9 1319,45 1431,60l-34,654c0,-1 -2,5 -3,7zm86,-414c-15,-90 22,-234 3,-307l-284,-15l4,-60l351,18l-19,365l-55,-1zm-1589,-441l352,17l-3,60l-288,-9c-2,55 -5,106 -7,161c-2,49 3,110 -17,142l-52,-1l15,-370zm-198,2685l1823,83l154,-3449l-1827,-86c-20,834 -81,1732 -115,2586c-5,145 -15,293 -20,438c-3,109 -27,333 -15,428z" fill="#FEFEFF"/>
    <path id="svg_2" d="m2483.95166,4368.97192c2,-1 -15,-19 36,-4c18,4 30,12 41,21c22,17 45,46 51,72c17,76 -42,135 -95,143c-75,12 -132,-51 -142,-99c-7,-31 13,-70 25,-89c27,-41 39,-29 84,-44zm-886,-192c-12,-95 12,-319 15,-428c5,-145 15,-293 20,-438c34,-854 95,-1752 115,-2586l1827,86l-154,3449l-1823,-83zm672,-3640c-89,28 5,25 -169,19c-277,-9 -412,-62 -421,152c-31,762 -77,1537 -102,2296c-18,511 -50,1022 -70,1533c-6,159 94,160 232,167l1533,69c176,9 195,-36 203,-199l171,-3829c-9,-135 -140,-129 -269,-132c-63,-1 -125,-6 -189,-9c-110,-4 -78,-33 -166,-40c-80,-6 -724,-36 -753,-27z" fill="#382636"/>
    <path id="svg_3" d="m1450.95166,4553.97192l-353,23c-47,3 -56,17 -80,37c-53,42 -266,154 -347,148c11,-56 85,-130 134,-145l2,-21c-92,44 -463,28 -494,126c198,233 3188,184 3797,156c205,-9 420,-23 622,-43c89,-8 512,-37 538,-122c-50,-69 -350,-101 -466,-105l-2,54l52,2c36,-15 106,1 148,10l-23,17c-18,9 -235,61 -269,50l-7,-39l-23,-108c-65,-4 -129,-11 -196,-15c-30,-3 -64,-4 -96,-6c-36,-1 -61,6 -71,-18c-19,30 -31,105 -26,147c-1,13 1,9 -4,23c-11,36 0,5 -10,22l-282,-43c31,-21 80,-28 139,-33l59,-2c-5,-34 -14,-89 -31,-113l-625,-18l5,-110c-34,193 63,419 -284,400l-1332,-61c-227,-11 -466,36 -475,-213z" fill="#C8CEDA"/>
    <path id="svg_4" d="m2291.95166,2966.97192l-343,-13l13,-345l344,15l-14,343zm15,-539l-92,-4l-1,-50l93,4l0,50zm-80,-300l15,49c55,-3 16,13 37,-46l51,4l-4,49l103,7l1,32c-26,22 -11,14 -95,11c-25,28 6,48 -38,49c-50,0 -17,-7 -22,-15l-9,-22c-1,-3 -2,-6 -3,-8c-1,-2 -1,-6 -2,-8l-84,-4l1,-97l49,-1zm-198,-9c14,26 0,33 24,54l80,3l-2,48l-99,-5l-1,-41c-33,-5 -27,0 -48,-14l0,-44l46,-1zm353,-18l45,2l0,43c-14,11 5,7 -19,10c-16,3 -18,0 -31,-3c-8,-33 -9,-28 5,-52zm290,-104c6,8 7,-1 11,21c1,6 0,23 -1,29l43,11l2,48l-49,-2c-9,-24 -7,-13 -3,-46c-9,0 -23,0 -32,-3c-22,-7 -5,0 -19,-11l2,-43l46,-4zm543,123l-341,-11l10,-344l346,12l-15,343zm-481,-205c-1,-36 -2,-77 10,-104l42,-1l-6,107l-46,-2zm-402,166l-343,-13l13,-344l346,14l-16,343zm351,1009l-3,-18c-119,8 -64,-11 -200,-14c10,-14 26,-40 31,-17l-83,-6c12,-64 7,-26 53,-34c-30,-7 -25,3 -48,-18l5,-9l-1,-41l-44,-5l-4,48l-48,2c-2,-4 -7,-4 -8,-21c-1,-21 1,-16 6,-33l52,-8l-2,-36l-3,-9l-1,-29c-3,2 -35,23 -44,8c-14,-21 -31,10 7,-21l-3,-48c39,-15 102,-1 147,-1l5,-83l-45,-19l2,-44l39,-2c17,24 9,15 10,52l45,4c-2,61 -17,50 38,50l6,-46c10,-4 -17,-4 22,-6c12,-1 25,1 38,2l0,-46l-50,-2l-4,-50l-45,0c-1,-2 -2,-8 -2,-7l0,-44l-42,-10c-8,-40 13,-39 -26,-45c-47,-7 -21,6 -37,44l-130,-4l-18,57l-88,-3c1,-31 5,-34 -5,-58l-37,-3l-10,31c-6,16 4,4 -9,25l-130,-4c-8,-72 1,-40 -29,-58c-22,-14 -11,4 -20,-20c-4,-11 0,-50 0,-64c2,-1 6,-5 7,-3l40,-15l1,-40l-46,-4l3,-48l46,0l6,-47l99,2l4,50l-101,-1l-2,46l37,-1c15,46 -8,33 20,56c86,-9 -28,-54 74,-52l6,14c3,12 3,8 4,24c1,15 -2,42 -3,58l133,5l9,-43c16,1 55,5 67,5c52,-4 38,14 37,-43l-44,-5c-1,0 -6,-3 -6,-23c1,-20 2,-15 7,-32l50,-9l1,-39l44,1l3,52l46,2l12,-48c3,0 23,-2 25,-2c32,-8 7,-1 21,-8c0,-30 12,-24 -37,-52c-2,-1 -6,-2 -8,-4l3,-63c-32,-3 -31,2 -53,-11c3,-72 -1,-31 55,-47l8,-148c-28,-19 -25,-3 -56,-19c0,-13 2,-36 2,-47l-10,-38l-28,0c-13,29 -13,88 -10,125l-3,62c12,9 -3,0 22,13c0,0 19,7 21,8l2,49l-51,-4l1,-47l-48,-10c-4,-39 -3,-107 12,-138l1,-103c3,-2 20,-1 41,-23c4,-5 9,-62 53,-11c1,2 2,4 4,6c15,19 -10,12 22,22c43,13 32,-19 32,-47l87,5l8,46c58,2 46,-11 50,30c-4,32 -26,16 -54,28c-4,66 -6,28 48,46l1,44l-95,2l-10,187c0,2 1,27 1,27c9,49 -3,12 14,34c52,-15 12,-7 24,-26c18,-28 -31,-18 24,-26c52,-8 18,18 36,54l34,0l6,-50l49,-2l10,-191l45,-4l-2,194l3,5l78,5c24,34 -7,19 18,50l84,5c1,-2 3,-8 3,-7c7,21 1,-12 16,-41l150,6l-4,59c34,0 13,2 29,7c28,10 97,26 65,7c-41,-26 -35,-13 -36,-79c48,3 28,-9 58,17c19,15 16,-10 17,40c0,46 -20,57 -3,123c1,-2 3,-8 3,-7l34,-654c-112,-15 -1402,-69 -1431,-60c-15,122 -64,1402 -57,1427l835,37z" fill="#FEFEFE"/>
    <path id="svg_5" d="m2269.95166,536.97192c29,-9 673,21 753,27c88,7 56,36 166,40c64,3 126,8 189,9c129,3 260,-3 269,132l-171,3829c-8,163 -27,208 -203,199l-1533,-69c-138,-7 -238,-8 -232,-167c20,-511 52,-1022 70,-1533c25,-759 71,-1534 102,-2296c9,-214 144,-161 421,-152c174,6 80,9 169,-19zm-531,-40c-41,34 -83,51 -104,116c-15,45 -17,159 -14,207c5,97 -13,265 -18,372c-7,124 -13,257 -21,371c6,31 1,77 -8,102c16,77 -8,339 -12,428c-4,69 -6,135 -8,204c-2,39 12,184 -20,198c14,60 -4,302 -8,378l-55,20l-2,5l-13,1081c-1,51 7,319 -9,343c11,87 7,146 4,232c9,249 248,202 475,213l1332,61c347,19 250,-207 284,-400l25,-641l4,-85l5,-85l2,-113c3,-48 -4,-77 9,-125l14,-353l4,-30l28,-662c5,-150 56,-1394 70,-1421c-32,-131 45,-145 -48,-297c-25,-5 -8,-5 -34,-22c-16,-10 -27,-16 -45,-21c-53,-17 -1707,-90 -1789,-84c-33,16 -13,11 -48,8z" fill="#606062"/>
    <path id="svg_6" d="m1276.95166,3460.97192l33,155c-41,-6 -88,-9 -124,-28l27,-193c-2,-13 8,-132 16,-160c11,9 8,-2 18,24l16,85c7,40 8,75 14,117zm-58,-638c-1,32 6,60 -14,82l-68,-11l-24,-3l-66,-23l-59,-19l-82,-19l-11,38c-61,-24 -157,-83 -220,-96c45,37 172,74 227,110l-17,372l-325,-131c27,24 125,57 161,72c54,22 111,42 164,67l-23,542l-7,316l-6,275l232,-2l18,-63l54,-461l31,-262l130,18l46,246l87,451c16,-24 8,-292 9,-343l13,-1081l-53,8l-18,3l-43,13l-17,3l-31,1l-44,-207l-20,-44c5,37 -7,125 -24,148z" fill="#60AED5"/>
    <path id="svg_7" d="m4469.95166,1362.97192c-105,-13 -191,43 -210,135c33,22 13,-14 30,13c11,17 -16,8 16,32c64,27 25,96 54,150c28,-34 14,-45 57,-54c24,55 -2,94 -41,115c11,64 20,74 20,147c-2,85 -25,160 -43,240c-24,104 -21,157 86,174c68,-7 38,-13 86,-37c8,116 48,148 169,136c56,-10 68,-14 84,-60l55,25l66,0c51,-37 71,-18 89,-151c243,-116 -45,-233 -70,-278c-126,-68 -95,-206 -83,-347c5,-171 -28,-195 -149,-256l-23,-2c-82,-9 -163,21 -193,18z" fill="#362635"/>
    <path id="svg_8" d="m3950.95166,3040.97192l-8,201l-1,18l10,550l22,499c21,13 54,22 84,29c44,9 59,1 75,34c5,-31 50,-12 88,-8c41,4 79,2 120,-2l81,-23l7,-745l1,-333c-237,-19 -380,-68 -467,-248l-12,28z" fill="#ED8E51"/>
    <path id="svg_9" d="m4449.95166,3260.97192l19,297l45,764c47,22 53,19 105,27c83,2 130,3 209,-7l-3,44c21,-51 -11,-39 52,-58c32,-9 51,-12 76,-33c10,-199 -35,-965 -77,-1152c-34,22 -48,40 -85,60c-26,14 -60,25 -95,34c-76,21 -164,23 -246,24z" fill="#ED8E51"/>
    <path id="svg_10" d="m344.95166,2274.97192c-36,73 41,173 81,212c148,147 143,246 88,444c-12,44 -46,225 -53,241l3,27c0,157 43,290 112,394c52,79 178,193 286,211l23,-542c-53,-25 -110,-45 -164,-67c-36,-15 -134,-48 -161,-72l325,131l17,-372c-55,-36 -182,-73 -227,-110c63,13 159,72 220,96l11,-38l-9,-7c-42,-15 -31,-52 -35,-97c-3,-35 -7,-71 -9,-105c-5,-67 -20,-180 -10,-240c-46,18 -36,92 -78,110c-116,12 -331,-219 -402,-264l5,36l-23,12z" fill="#3BD98F"/>
    <path id="svg_11" d="m4245.95166,2656.97192c-21,24 -42,67 -75,74c-35,7 -66,-27 -90,-39c-8,31 -24,41 -44,72c-8,12 -13,26 -19,38c-11,21 -6,19 -18,26l-6,21l-43,192l12,-28c87,180 230,229 467,248l20,0c82,-1 170,-3 246,-24c35,-9 69,-20 95,-34c37,-20 51,-38 85,-60l-30,-186c-18,-76 -62,-282 -118,-322c-40,50 -411,63 -482,22z" fill="#FFA756"/>
    <path id="svg_12" d="m3702.95166,912.97192c-14,27 -65,1271 -70,1421c45,-5 74,-28 106,-46c-15,-57 -25,-78 -9,-128c0,-2 1,-5 2,-7l22,-83l-33,-130c35,-24 170,-53 221,-56l-16,-19c-17,-30 -3,-54 -27,-104l-13,-60l1,-16c-2,-2 -3,-5 -4,-6c-1,-1 -3,-4 -4,-6c-22,-41 -38,-131 -14,-197c27,-70 75,-94 108,-152c113,-200 -200,-308 -21,-588c98,-153 237,-438 -34,-493c-14,108 -42,98 -74,205c-21,69 -38,128 -60,196c7,-10 -8,-99 -57,-117c9,53 15,64 35,110c28,67 -36,148 -61,285c13,0 11,3 2,-9z" fill="#2EBF7B"/>
    <path id="svg_13" d="m1022.95166,107.97192c30,25 38,63 51,96c20,52 13,73 25,111l137,375c37,73 40,101 66,167c22,56 19,28 20,28l-96,5c30,20 113,8 157,18c90,22 79,71 88,96c20,52 66,31 42,128c-12,49 -42,92 -59,128l58,148c28,76 41,128 70,155c8,-114 14,-247 21,-371c5,-107 23,-275 18,-372l-12,68c-164,-135 -105,-334 -175,-551c-34,-105 -73,-179 -134,-228c-75,-59 -202,-59 -277,-1z" fill="#2EBF7B"/>
    <path id="svg_14" d="m3180.95166,2946.97192l-4,61l-52,-1l0,-61l-51,-4l-1,-31c18,-14 -4,-7 24,-13l83,3l1,46zm-12,-715c5,42 11,14 28,45c33,63 -11,37 -22,46c-10,8 -13,-26 -16,22c-2,30 -2,9 7,20c16,19 12,4 39,16l-3,81l-46,12l-4,45l47,-1l5,51l-15,8c-45,25 -28,24 -43,41l-77,-8c-4,41 -20,-39 -28,59l19,46c30,-8 26,4 29,-6l-6,-47l109,5c-2,41 -9,65 1,103c-16,20 6,14 -32,18c-33,4 -22,-6 -29,-10c-28,-18 -1,-41 -46,-20l1,39c-13,12 4,5 -19,11c-9,3 -18,0 -30,0l-8,-27c-18,5 -7,0 -21,9c-7,3 -14,13 -15,11c-2,-2 -5,5 -8,7c-36,-4 -68,-7 -102,3c-38,10 -65,11 -103,-1c-20,22 -1,-14 0,7l0,12c-92,-23 -74,23 -74,44l28,0c3,-21 -3,-42 34,-31c32,10 14,29 31,52l86,4l4,46l-100,-1c-16,53 12,48 -46,48c-27,-29 0,-16 -19,-51l-91,-4l5,-98l-35,2l-15,-30c-14,-27 16,2 -12,-23c-55,4 -21,3 -32,16l-15,29c-56,-4 -132,-18 -182,-3c-38,31 -21,0 -7,21c9,15 41,-6 44,-8l1,29l57,4l3,57l38,-6l5,-1l3,-45l47,2c5,10 5,2 6,20c1,10 -1,17 -2,28l51,5l-7,52l-48,-3l1,-45l-38,-5l-15,52l-54,-3c23,21 18,11 48,18c-46,8 -41,-30 -53,34l83,6c-5,-23 -21,3 -31,17c136,3 81,22 200,14l3,18c108,5 517,35 594,19c0,-131 45,-690 22,-762c-17,-66 3,-77 3,-123c-1,-50 2,-25 -17,-40c-30,-26 -10,-14 -58,-17c1,66 -5,53 36,79c32,19 -37,3 -65,-7c-16,-5 5,-7 -29,-7z" fill="#FEFEFE"/>
    <path id="svg_15" d="m319.95166,946.97192c22,67 52,114 58,175c2,22 -1,15 5,38l131,338c0,-1 21,-2 -6,-21c-34,-23 13,-6 -50,-16c27,93 47,24 83,118c26,66 137,388 164,419c29,-32 44,-103 62,-153c9,-27 18,-53 26,-77c12,-36 8,-56 41,-66l7,-11c-7,-29 -38,-67 -52,-115c-30,-107 -13,-231 -79,-422c-58,-167 -185,-320 -390,-207z" fill="#2EBF7B"/>
    <path id="svg_16" d="m3632.95166,2333.97192l-28,662c46,42 91,254 133,300l149,-319c15,-33 43,-81 53,-114c17,-54 -136,-387 -150,-482c27,18 18,9 32,48l135,391c48,-68 41,-120 91,-163l-295,-356c-9,-10 -7,-9 -14,-13c-32,18 -61,41 -106,46z" fill="#3BD98F"/>
    <path id="svg_17" d="m410.95166,2081.97192c31,24 233,143 267,147l0,-28c-27,-14 -47,-34 -61,-52l33,-82l22,15c28,-14 33,-57 33,-84c-27,-31 -138,-353 -164,-419c-36,-94 -56,-25 -83,-118c63,10 16,-7 50,16c27,19 6,20 6,21l-131,-338c-6,-23 -3,-16 -5,-38c-6,-61 -36,-108 -58,-175l-19,13c-303,216 115,644 153,801c35,147 -38,255 -47,292c-8,38 3,29 4,29z" fill="#3BD98F"/>
    <path id="svg_18" d="m2532.95166,3642.97192c6,-25 13,-41 23,-66c29,-78 15,-52 39,-63c32,12 8,-12 25,22c1,0 9,30 11,35c9,31 22,52 11,78c-27,-7 -28,-18 -47,-29c-53,20 -1,27 -62,23zm155,7c-19,-25 -6,-92 -3,-129c41,-4 52,30 68,60c21,-31 -5,-39 28,-60c14,7 21,-7 19,58c-1,26 -1,52 -10,74c-41,-4 -47,-29 -62,-58l-7,15c-21,54 7,36 -33,40zm-176,-33c-80,96 -175,-80 -70,-106c44,-11 61,6 74,36c-49,14 -90,-30 -85,31c2,28 7,28 32,29c40,1 -4,-9 29,-4c30,5 14,7 20,14zm-203,-76l63,34c-2,78 -62,65 -108,41c23,-54 20,3 66,-30c-71,-16 -58,-38 -54,-75c36,-13 64,-20 93,12c-33,46 -15,-10 -60,18zm-247,66c25,24 28,50 70,73c45,25 338,30 404,33c90,6 187,7 275,12c45,3 84,6 123,-11c58,-27 40,-45 74,-76c-4,-112 -14,-173 -162,-180c-101,-5 -206,-10 -307,-14c-374,-13 -454,-72 -477,163z" fill="#5B97C2"/>
    <path id="svg_19" d="m4861.95166,908.97192c21,14 17,2 -1,46l-74,150c-30,64 -63,138 -90,201c38,-26 244,-148 284,-159c-17,39 -227,138 -273,171c-44,32 -22,5 -22,29c121,61 154,85 149,256c19,-40 -1,-55 23,-91c10,-15 39,-47 51,-60c37,-41 63,-89 101,-123c45,-98 122,-173 140,-314c19,-148 -65,-251 -177,-278c-38,-2 -41,45 -57,80c-16,36 -23,64 -54,92z" fill="#2EBF7B"/>
    <path id="svg_20" d="m3898.95166,1760.97192c24,50 10,74 27,104l16,19c25,94 102,370 103,452l-39,10c-8,21 -23,0 47,54c26,20 50,42 75,54c11,-28 18,-41 17,-70l-10,-57c-8,-31 -77,-530 -75,-537l73,438l27,-48c42,-109 50,-157 165,-188c46,-12 45,-29 65,-76l-30,-19c-72,-16 -90,-60 -89,-148c0,-60 16,-133 32,-186c-17,15 -22,16 -45,28l-158,64c-162,64 -153,88 -201,106z" fill="#3BD98F"/>
    <path id="svg_21" d="m1235.95166,1418.97192c-36,48 -111,23 -141,-9l141,9zm-170,-335l24,-36l46,3c1,1 -1,3 -1,4c-8,61 146,46 210,16c-5,81 -17,60 14,131c21,46 -22,280 -105,299l4,-108c-114,-30 -163,-32 -194,25c-9,17 2,6 -11,17l-31,-31c-10,44 -29,90 -15,141c29,29 41,23 77,38l79,12c99,4 131,-9 192,-49l3,-14l21,-116c-1,-72 -6,-112 36,-159l30,9l9,-6c17,-36 47,-79 59,-128c24,-97 -22,-76 -42,-128c-9,-25 2,-74 -88,-96c-44,-10 -127,2 -157,-18c-61,1 -55,-20 -78,-66c-16,18 -5,4 -16,28c-3,7 -4,12 -8,20l-6,14c-4,-17 2,-77 -1,-81c-26,11 -49,21 -64,44c-27,43 -8,49 -6,92c1,29 3,-3 -3,12c-1,1 -5,5 -6,7c-19,43 10,43 22,85c2,7 3,27 6,39z" fill="#362635"/>
    <path id="svg_22" d="m1047.95166,1618.97192c8,50 -1,41 -6,84c-10,95 31,418 31,548c-1,32 8,53 11,82c4,37 -5,31 -1,75l12,159c8,57 25,262 18,324l24,3c-20,-190 -19,-389 -37,-578c-16,-179 -29,-387 -35,-573l31,159c18,-13 -2,-3 23,-19l42,517c15,120 27,412 44,505c20,-22 13,-50 14,-82c-13,-180 -29,-357 -46,-534c-7,-82 -16,-181 -19,-263c-4,-156 -59,-213 52,-206c2,42 -6,56 -2,106l39,749l20,44c14,-128 -16,-304 -15,-442c0,-130 -18,-240 -21,-331c-2,-36 3,-70 -2,-117c30,16 3,12 41,5l34,547c7,66 23,502 38,544l17,-3l-61,-1103c33,11 9,-10 22,20l82,1070l18,-3c-21,-363 -56,-713 -79,-1072c19,19 46,48 54,69c4,-40 19,-149 49,-177l8,299c5,-50 5,-121 4,-173c0,-28 0,-67 -4,-94c-7,-58 -28,-48 4,-90l-4,-23c2,-21 14,-30 -24,-31c-30,-2 -7,-1 -34,19c-35,65 -108,154 -137,204c-37,-15 -8,3 -33,-23l-49,-72c-22,-29 -52,-61 -63,-99c-31,-26 -13,-42 -60,-24z" fill="#CE7B48"/>
    <path id="svg_23" d="m3570.95166,3701.97192l-4,85c115,21 256,36 385,23l-10,-550c-26,5 -76,28 -105,39c-28,11 -83,22 -101,46c-8,13 -86,190 -88,199l289,-52c-14,29 -202,52 -231,56c-126,20 -66,59 -135,154z" fill="#2EBF7B"/>
    <path id="svg_24" d="m4469.95166,1362.97192c30,3 111,-27 193,-18c-11,-48 -16,-109 -20,-159l-4,-146c24,54 27,195 34,267c18,-51 68,-135 94,-191c22,-46 84,-167 95,-207c31,-28 38,-56 54,-92c16,-35 19,-82 57,-80c-61,-42 -191,-16 -239,20c-57,44 -93,88 -130,158c-50,94 -134,323 -134,448z" fill="#3BD98F"/>
    <path id="svg_25" d="m1116.95166,804.97192c3,4 -3,64 1,81l6,-14c4,-8 5,-13 8,-20c11,-24 0,-10 16,-28c23,46 17,67 78,66l96,-5c-1,0 2,28 -20,-28c-26,-66 -29,-94 -66,-167l-137,-375c-12,-38 -5,-59 -25,-111c-13,-33 -21,-71 -51,-96c-194,105 -99,381 -3,540l97,157z" fill="#3BD98F"/>
    <path id="svg_26" d="m3753.95166,2069.97192l-22,83c-1,2 -2,5 -2,7c-16,50 -6,71 9,128c7,4 5,3 14,13l295,356c23,16 14,7 33,35c24,12 55,46 90,39c33,-7 54,-50 75,-74c10,-27 23,-54 45,-73c1,-23 8,-42 22,-54l12,-31c-33,-11 -26,-10 -52,-30c-15,-11 -21,-13 -40,-26c-17,-13 -61,-43 -73,-59l-15,0c1,29 -6,42 -17,70c-25,-12 -49,-34 -75,-54c-70,-54 -55,-33 -47,-54c-37,-2 -54,-19 -67,-50l-53,-27c-1,-37 8,-33 2,-67c-5,-26 -13,-38 -16,-68c-15,17 -19,11 -17,68c-117,-87 -55,-83 -97,-155l-4,23z" fill="#AA534D"/>
    <path id="svg_27" d="m2865.95166,2455.97192l94,9l-2,46l-93,-4l1,-51zm-297,-122l48,10l0,50l-49,-4l-2,84c2,1 6,2 7,3c34,19 20,2 34,57c30,1 69,-1 95,14c-3,63 -3,33 -16,42l-27,11c-1,-2 -4,1 -6,3l-1,38l43,-1c10,11 19,-1 9,53c-30,6 -30,-2 -55,12l1,39l43,8c-3,81 2,19 -51,46l-3,39l58,50c65,5 20,5 38,-15l-28,0c0,-21 -18,-67 74,-44l0,-12c-1,-21 -20,15 0,-7c38,12 65,11 103,1c-31,-16 -98,-13 -141,-14l7,-242l244,5l-8,248c3,-2 6,-9 8,-7c1,2 8,-8 15,-11c14,-9 3,-4 21,-9l12,-29l44,6c45,-21 18,2 46,20c7,4 -4,14 29,10c38,-4 16,2 32,-18l-56,5l1,-60l-49,-6c-3,10 1,-2 -29,6l-19,-46c8,-98 24,-18 28,-59l-27,-6l0,-43l107,3l-3,54c15,-17 -2,-16 43,-41l15,-8l-58,0l6,-50l-47,-1c-4,-24 4,-86 -38,-48c-36,33 25,46 -54,44c-13,-25 -6,-64 -6,-96l-136,-4l-5,42c-45,-1 -90,-4 -135,-6c-35,-1 -89,3 -119,-13l1,-28c17,-14 -5,-3 21,-9l73,1l18,-46l136,-12c1,-3 2,-6 2,-8l3,-30l-293,-12l-4,41z" fill="#FCFCFA"/>
    <path id="svg_28" d="m3015.95166,2314.97192l-2,46c-24,11 -18,8 -55,4l3,-54c32,-7 30,-6 54,4zm90,-42l6,39l-16,6c-31,5 12,2 -17,1c-12,0 -15,-4 -28,-7l6,-46c29,-4 27,-5 49,7zm-286,-69c23,7 24,2 45,4c71,10 28,-5 43,24c-8,15 6,25 -62,21c-26,-1 -50,-3 -76,-8c-33,3 -26,48 -26,-41c-53,80 -97,44 -149,66c59,0 104,9 143,11c18,1 53,-5 71,-4c13,0 25,1 36,7c38,19 4,-37 21,21l-3,30c0,2 -1,5 -2,8l-136,12l-18,46l-73,-1c-26,6 -4,-5 -21,9l-1,28c30,16 84,12 119,13c45,2 90,5 135,6l5,-42l136,4c0,32 -7,71 6,96c79,2 18,-11 54,-44c42,-38 34,24 38,48l47,1l4,-45l46,-12l3,-81c-27,-12 -23,3 -39,-16c-9,-11 -9,10 -7,-20c3,-48 6,-14 16,-22c11,-9 55,17 22,-46c-17,-31 -23,-3 -28,-45l4,-59l-150,-6c-15,29 -9,62 -16,41c0,-1 -2,5 -3,7l-84,-5c-25,-31 6,-16 -18,-50l-78,-5l-4,49z" fill="#362635"/>
    <path id="svg_29" d="m362.95166,2226.97192c71,45 286,276 402,264c42,-18 32,-92 78,-110l-4,-40c-34,-20 -52,-35 -81,-57c-27,-21 -51,-36 -80,-55c-34,-4 -236,-123 -267,-147l-43,-19c-8,-52 -9,-93 -53,-121l48,285z" fill="#FFAC9C"/>
    <path id="svg_30" d="m1209.95166,1254.97192c26,23 27,32 62,12c-10,27 -6,25 -50,27l-12,-39zm-113,3l14,9c-37,4 -53,2 -54,-35c16,20 24,19 40,26zm214,-46c-50,-13 -52,-21 -109,-14c28,-52 90,-18 109,14zm-213,-28c-33,-5 -17,5 -36,-13c28,-30 62,-4 77,24c-26,-10 -17,-7 -41,-11zm-32,-100l-37,278l-29,-22c0,0 -4,0 -5,-3c0,-2 -3,-2 -5,-2c17,30 48,31 32,69l31,31c13,-11 2,0 11,-17c31,-57 80,-55 194,-25l-4,108c83,-19 126,-253 105,-299c-31,-71 -19,-50 -14,-131c-64,30 -218,45 -210,-16c0,-1 2,-3 1,-4l-46,-3l-24,36z" fill="#FFAC9C"/>
    <path id="svg_31" d="m2366.95166,2384.97192l44,5c1,57 15,39 -37,43c-12,0 -51,-4 -67,-5l-9,43l-133,-5c1,-16 4,-43 3,-58c-1,-16 -1,-12 -4,-24l-6,-14c-102,-2 12,43 -74,52c-28,-23 -5,-10 -20,-56l-37,1l-9,2l-1,40l-40,15c-1,-2 -5,2 -7,3c0,14 -4,53 0,64c9,24 -2,6 20,20c30,18 21,-14 29,58l130,4c13,-21 3,-9 9,-25l10,-31l37,3c10,24 6,27 5,58l88,3l18,-57l130,4c16,-38 -10,-51 37,-44c39,6 18,5 26,45l44,4l0,57l45,0l4,50l50,2l1,-38c2,-2 5,-5 6,-3l27,-11c13,-9 13,21 16,-42c-26,-15 -65,-13 -95,-14c-14,-55 0,-38 -34,-57c-1,-1 -5,-2 -7,-3l2,-84l-40,-2c-20,-14 -8,1 -15,-25c-1,-2 -1,-21 -1,-26l-46,-2c0,8 0,20 -2,27c-6,33 -2,11 -8,23l-40,-1l3,-48l-50,-3l-2,52z" fill="#362635"/>
    <path id="svg_32" d="m840.95166,1690.97192l-7,11l63,1121l9,7l82,19l-83,-1134c-9,-33 -3,-19 -21,-36l-43,12z" fill="#E78948"/>
    <path id="svg_33" d="m2391.95166,1907.97192l-10,137l37,3c2,-4 2,4 7,-21l10,-52c-3,-37 -3,-96 10,-125l28,0l10,38c0,11 -2,34 -2,47c31,16 28,0 56,19l-8,148c-56,16 -52,-25 -55,47c22,13 21,8 53,11l-3,63c2,2 6,3 8,4c49,28 37,22 37,52c-14,7 11,0 -21,8c-2,0 -22,2 -25,2l-4,47l49,-2l4,-41l293,12c-17,-58 17,-2 -21,-21c-11,-6 -23,-7 -36,-7c-18,-1 -53,5 -71,4c-39,-2 -84,-11 -143,-11c52,-22 96,14 149,-66c0,89 -7,44 26,41l1,-84l-51,-8c2,33 8,25 -7,50l-34,0c-18,-36 16,-62 -36,-54c-55,8 -6,-2 -24,26c-12,19 28,11 -24,26c-17,-22 -5,15 -14,-34c0,0 -1,-25 -1,-27l10,-187l95,-2l-1,-44c-54,-18 -52,20 -48,-46c28,-12 50,4 54,-28c-4,-41 8,-28 -50,-30l-8,-46l-87,-5c0,28 11,60 -32,47c-32,-10 -7,-3 -22,-22c-2,-2 -3,-4 -4,-6c-44,-51 -49,6 -53,11c-21,22 -38,21 -41,23l-1,103z" fill="#362635"/>
    <path id="svg_34" d="m4134.95166,2326.97192l30,-6l0,22c60,15 122,75 176,99l26,23c26,-16 11,3 28,-32l44,-118c-107,-17 -110,-70 -86,-174c18,-80 41,-155 43,-240l-36,-4l30,19c-20,47 -19,64 -65,76c-115,31 -123,79 -165,188l-27,48l-73,-438c-2,7 67,506 75,537z" fill="#64ADD4"/>
    <path id="svg_35" d="m1415.95166,2905.97192l53,-8l2,-5l-23,-868l-8,-299c-30,28 -45,137 -49,177c-8,-21 -35,-50 -54,-69c23,359 58,709 79,1072z" fill="#FFA756"/>
    <path id="svg_36" d="m981.95166,1654.97192c-16,108 35,592 33,754c0,57 18,402 32,459l66,23c7,-62 -10,-267 -18,-324l-12,-159c-4,-44 5,-38 1,-75c-3,-29 -12,-50 -11,-82c0,-130 -41,-453 -31,-548c5,-43 14,-34 6,-84c-34,33 -21,19 -66,36z" fill="#F79856"/>
    <path id="svg_37" d="m4438.95166,2314.97192l-44,118c-17,35 -2,16 -28,32l-26,-23l-16,57l-12,31c150,-5 258,67 317,18c-18,-14 0,-9 -57,-20c-18,-3 -25,-6 -46,-10c-33,-6 -64,-9 -94,-16c42,-46 33,-18 29,-84c12,47 1,20 32,24c12,-13 22,-21 39,-15c-19,29 -54,34 -58,72c54,3 98,18 155,21c11,28 -23,44 36,48c45,4 33,-16 74,-2c-17,19 7,7 -27,16c-51,13 -348,-54 -371,-49c-30,8 -8,-1 -28,15c44,32 38,4 106,24c64,20 33,2 98,11c34,5 88,31 158,21l18,-3c14,-3 6,-4 29,-6c12,18 33,-25 3,26c37,-24 79,-87 79,-147c-20,-17 2,-3 -29,-17c-8,-4 -17,-7 -25,-11c-27,-10 -37,-13 -57,-32c-121,12 -161,-20 -169,-136c-48,24 -18,30 -86,37z" fill="#5B97C2"/>
    <path id="svg_38" d="m883.95166,1678.97192c18,17 12,3 21,36l83,1134l59,19c-14,-57 -32,-402 -32,-459c2,-162 -49,-646 -33,-754l-98,24z" fill="#FFA756"/>
    <path id="svg_39" d="m704.95166,1997.97192c0,27 -5,70 -33,84c17,24 154,144 167,151l-7,75l7,33l4,40c-10,60 5,173 10,240c2,34 6,70 9,105c4,45 -7,82 35,97l-63,-1121c-33,10 -29,30 -41,66c-8,24 -17,50 -26,77c-18,50 -33,121 -62,153z" fill="#FFA756"/>
    <path id="svg_40" d="m3654.95166,615.97192c93,152 16,166 48,297c9,12 11,9 -2,9c25,-137 89,-218 61,-285c-20,-46 -26,-57 -35,-110c49,18 64,107 57,117c22,-68 39,-127 60,-196c32,-107 60,-97 74,-205c-112,-4 -159,44 -198,123c-18,38 -29,77 -38,120c-7,36 -6,116 -27,130z" fill="#3BD98F"/>
    <path id="svg_41" d="m1451.95166,1667.97192c-32,42 -11,32 -4,90c4,27 4,66 4,94c1,52 1,123 -4,173l23,868l55,-20c4,-76 22,-318 8,-378c-4,-15 -5,-169 -7,-212l-18,-421c-3,-54 -11,-167 -8,-213c-28,24 -22,50 -21,100l11,297c0,84 5,315 -15,377l-24,-755z" fill="#C77638"/>
    <path id="svg_42" d="m3757.95166,2046.97192c42,72 -20,68 97,155c-2,-57 2,-51 17,-68c3,30 11,42 16,68c6,34 -3,30 -2,67l53,27l85,-14l-90,-376l-196,47l20,94z" fill="#FEFEFF"/>
    <path id="svg_43" d="m2010.95166,2662.97192l242,11l-9,243l-242,-13l9,-241zm295,-39l-344,-15l-13,345l343,13l14,-343z" fill="#362635"/>
    <path id="svg_44" d="m2046.95166,1912.97192l5,-135l242,9l-11,241l-115,1l-135,-11l14,-105zm301,-175l-346,-14l-13,344l343,13l16,-343z" fill="#362635"/>
    <path id="svg_45" d="m1136.95166,2893.97192l68,11c-17,-93 -29,-385 -44,-505l-42,-517c-25,16 -5,6 -23,19l-31,-159c6,186 19,394 35,573c18,189 17,388 37,578z" fill="#FFA756"/>
    <path id="svg_46" d="m3161.95166,2065.97192c-32,4 -224,2 -234,-16c-9,-15 4,-202 7,-231c61,-5 187,-4 242,14l-15,233zm68,-289l-346,-12l-10,344l341,11l15,-343z" fill="#362635"/>
    <path id="svg_47" d="m1378.95166,1415.97192l-21,116c6,43 -5,92 32,101c27,-20 4,-21 34,-19c38,1 26,10 24,31l53,4l73,16c9,-25 14,-71 8,-102c-29,-27 -42,-79 -70,-155l-58,-148l-9,6c4,77 -1,128 -66,150z" fill="#3BD98F"/>
    <path id="svg_48" d="m1262.95166,2718.97192l44,207l31,-1c-15,-42 -31,-478 -38,-544l-34,-547c-38,7 -11,11 -41,-5c5,47 0,81 2,117c3,91 21,201 21,331c-1,138 29,314 15,442z" fill="#FFA756"/>
    <path id="svg_49" d="m1218.95166,2822.97192c17,-23 29,-111 24,-148l-39,-749c-4,-50 4,-64 2,-106c-111,-7 -56,50 -52,206c3,82 12,181 19,263c17,177 33,354 46,534z" fill="#FFA756"/>
    <path id="svg_50" d="m3604.95166,2995.97192l-4,30c20,19 92,210 110,255c32,79 -34,124 -79,254c-52,-45 -45,-78 -45,-156c-13,48 -6,77 -9,125c10,7 6,0 22,18c9,11 11,17 19,30l-34,91l-9,-26l-5,85c69,-95 9,-134 135,-154c29,-4 217,-27 231,-56l-289,52c2,-9 80,-186 88,-199c18,-24 73,-35 101,-46c29,-11 79,-34 105,-39l1,-18l-192,69l171,-365c49,-97 20,-84 72,-97l6,-21l-28,8c21,-57 70,-121 76,-179c-50,43 -43,95 -91,163l-135,-391c-14,-39 -5,-30 -32,-48c14,95 167,428 150,482c-10,33 -38,81 -53,114l-149,319c-42,-46 -87,-258 -133,-300z" fill="#96B6CA"/>
    <path id="svg_51" d="m2483.95166,4368.97192c-45,15 -57,3 -84,44c-12,19 -32,58 -25,89c10,48 67,111 142,99c53,-8 112,-67 95,-143c-6,-26 -29,-55 -51,-72c-11,-9 -23,-17 -41,-21c-51,-15 -34,3 -36,4z" fill="#362635"/>
    <polygon id="svg_52" points="1152.95166015625,3868.971923828125 1359.95166015625,3870.971923828125 1313.95166015625,3624.971923828125 1183.95166015625,3606.971923828125 " fill="#3BD98F"/>
    <path id="svg_53" d="m3007.95166,3637.97192c-34,31 -16,49 -74,76c-39,17 -78,14 -123,11c-88,-5 -185,-6 -275,-12c-66,-3 -359,-8 -404,-33c-42,-23 -45,-49 -70,-73c1,115 83,134 173,136l592,29c104,5 177,-32 181,-134z" fill="#FEFEFE"/>
    <path id="svg_54" d="m1780.95166,1861.97192l52,1c20,-32 15,-93 17,-142c2,-55 5,-106 7,-161l288,9l3,-60l-352,-17l-15,370z" fill="#FCFCFA"/>
    <polygon id="svg_55" points="1798.95166015625,2803.971923828125 1736.95166015625,2807.971923828125 1722.95166015625,3172.971923828125 2074.95166015625,3182.971923828125 2074.95166015625,3123.971923828125 1788.95166015625,3111.971923828125 " fill="#FCFCFA"/>
    <path id="svg_56" d="m3395.95166,2876.97192l-58,-3l-14,301c-82,18 -208,-18 -291,-3l3,59l350,12l10,-366z" fill="#FEFEF9"/>
    <path id="svg_57" d="m3586.95166,3378.97192c0,78 -7,111 45,156c45,-130 111,-175 79,-254c-18,-45 -90,-236 -110,-255l-14,353z" fill="#3BD98F"/>
    <path id="svg_58" d="m3103.95166,1610.97192l284,15c19,73 -18,217 -3,307l55,1l19,-365l-351,-18l-4,60z" fill="#FEFEF9"/>
    <path id="svg_59" d="m1533.95166,2494.97192c32,-14 18,-159 20,-198c2,-69 4,-135 8,-204c4,-89 28,-351 12,-428l-73,-16c-3,46 5,159 8,213l18,421c2,43 3,197 7,212z" fill="#CE8754"/>
    <path id="svg_60" d="m2984.95166,1864.97192l141,7l-7,145l-145,-8l11,-144zm177,201l15,-233c-55,-18 -181,-19 -242,-14c-3,29 -16,216 -7,231c10,18 202,20 234,16z" fill="#FCFCFA"/>
    <path id="svg_61" d="m3942.95166,3241.97192l8,-201l43,-192c-52,13 -23,0 -72,97l-171,365l192,-69z" fill="#2EBF7B"/>
    <path id="svg_62" d="m2097.95166,1828.97192l145,2l-7,144l-144,-3l6,-143zm-51,84l-5,102l126,14l115,-1l11,-241l-242,-9l-5,135z" fill="#FCFCFA"/>
    <path id="svg_63" d="m4161.95166,4555.97192c17,24 26,79 31,113l-59,2c9,42 116,29 157,31c-5,-42 7,-117 26,-147l9,-91c-27,-9 -71,-19 -106,-28c-59,-15 -51,-6 -82,-43c9,52 29,112 24,163z" fill="#AA534D"/>
    <path id="svg_64" d="m2056.95166,2859.97192c-13,-43 -1,-98 0,-147l145,8l-4,145l-141,-6zm-55,44l242,13l9,-243l-242,-11l-9,241z" fill="#FCFCFA"/>
    <path id="svg_65" d="m2788.95166,2677.97192l7,-83l94,10l55,0l-4,151l-149,-8l-3,-70zm95,133c34,-10 66,-7 102,-3l8,-248l-244,-5l-7,242c43,1 110,-2 141,14z" fill="#362635"/>
    <path id="svg_66" d="m4647.95166,4464.97192l32,129l23,108c25,-3 54,-5 83,-9c9,-2 31,-5 39,-8c30,-11 18,-8 29,-21l-52,-2l2,-54l22,-207l-178,64z" fill="#AA534D"/>
    <path id="svg_67" d="m1149.95166,1629.97192l-13,1l-29,12c11,38 41,70 63,99l49,72c25,26 -4,8 33,23c29,-50 102,-139 137,-204c-37,-9 -26,-58 -32,-101l-3,14l-2,27c-41,36 -130,85 -203,57z" fill="#FFAC9C"/>
    <path id="svg_68" d="m1354.95166,2921.97192l43,-13l-82,-1070c-13,-30 11,-9 -22,-20l61,1103z" fill="#FFA756"/>
    <path id="svg_69" d="m293.95166,1897.97192c6,57 25,115 21,170c20,26 30,102 28,141l-201,36l-19,-115l-32,-189l-15,-82l202,-34l16,73zm51,377l23,-12l-5,-36l-48,-285c-27,-173 -17,-149 -144,-127c-17,3 -37,5 -55,9l-49,18c-12,30 55,414 77,462c57,5 142,-17 201,-29z" fill="#3B2533"/>
    <path id="svg_70" d="m900.95166,4508.97192l133,-1c10,14 8,-23 8,24c36,-56 1,-10 58,-42l-1,-160l-18,63l-232,2l6,-275c-14,42 -9,113 -11,166c-3,138 11,85 -32,121l13,81l76,21z" fill="#90CDEB"/>
    <path id="svg_71" d="m4302.95166,1562.97192c-16,53 -32,126 -32,186c-1,88 17,132 89,148l36,4c0,-73 -9,-83 -20,-147c39,-21 65,-60 41,-115c-43,9 -29,20 -57,54c-29,-54 10,-123 -54,-150l-3,20z" fill="#AA534D"/>
    <path id="svg_72" d="m4245.95166,2656.97192c71,41 442,28 482,-22l-2,-14c-131,33 -313,-40 -435,-37c-22,19 -35,46 -45,73z" fill="#ED8E51"/>
    <path id="svg_73" d="m2347.95166,2828.97192c50,-15 126,-1 182,3l15,-29c11,-13 -23,-12 32,-16c28,25 -2,-4 12,23l15,30l35,-2l3,-39c53,-27 48,35 51,-46l-43,-8l-18,-53l-40,0l-6,46c-55,0 -40,11 -38,-50l-45,-4c-1,-37 7,-28 -10,-52l-39,2l-2,44l45,19l-5,83c-45,0 -108,-14 -147,1l3,48z" fill="#362635"/>
    <path id="svg_74" d="m4068.95166,1005.97192l-15,-10c6,94 34,158 130,165c-27,185 -137,417 -297,524l-1,16c23,-8 47,-28 68,-43c28,-21 77,-85 98,-116c12,-19 22,-41 37,-66c48,-82 95,-211 111,-312c104,31 135,-13 172,-72l-11,-9c-25,41 -54,75 -123,75c15,-14 7,-5 18,-13c30,-24 22,-16 30,-36c-25,4 -25,20 -76,33l34,-155c-1,-15 3,-10 -14,-10l-37,150c-38,-42 -37,-94 -32,-154l-14,-4c-13,72 2,130 34,176c-81,-6 -98,-62 -112,-139z" fill="#ADB9C6"/>
    <path id="svg_75" d="m866.95166,4571.97192c17,10 9,-13 14,13c6,32 2,2 -6,15l-8,-28zm26,-27c17,9 14,-24 15,29l-15,-29zm0,0l-22,4c-8,16 -15,-21 -4,23c-82,11 -11,20 -25,55c-13,-29 -5,-18 -35,-31l-2,21l41,69c43,-16 81,-36 121,-58c64,-36 70,-21 75,-96c0,-47 2,-10 -8,-24l-133,1c-1,22 0,13 -8,36z" fill="#362635"/>
    <path id="svg_76" d="m756.95166,693.97192c-19,0 -16,-5 -16,10l34,158c-69,-21 -86,-48 -110,-104l-18,4c10,20 33,61 41,70c12,15 46,35 60,38c-63,18 -100,-33 -122,-72c-19,0 -19,-6 -14,9l3,15c58,51 58,84 167,61c11,71 114,423 208,452c-15,-39 -41,-66 -62,-101c-61,-105 -110,-230 -130,-354c93,-6 126,-70 134,-164c-9,7 -6,1 -16,12c-15,78 -40,126 -115,136c29,-56 52,-94 39,-173l-14,10c5,92 -9,83 -31,148l-38,-155z" fill="#ADB9C6"/>
    <path id="svg_77" d="m122.95166,2129.97192l19,115l201,-36c2,-39 -8,-115 -28,-141l9,38c-49,-3 -65,-10 -114,2c-57,14 -32,29 -87,22z" fill="#FEFEFE"/>
    <path id="svg_78" d="m2056.95166,2859.97192l141,6l4,-145l-145,-8c-1,49 -13,104 0,147z" fill="#362635"/>
    <path id="svg_79" d="m281.95166,2791.97192c-4,30 -3,23 7,53c-67,-16 -91,-46 -120,-92c-15,0 -11,-4 -12,12c18,42 73,88 110,93c-74,19 -100,-32 -133,-59l-9,7c30,56 84,96 175,59c30,114 98,269 164,334l-3,-27c-55,-85 -115,-196 -145,-311c88,-9 116,-82 118,-175l-16,1c-5,84 -22,140 -100,157c30,-54 38,-111 21,-174l-13,7c9,71 8,97 -23,152c-1,-3 -2,-10 -6,-17c-22,-42 -2,-8 -15,-20z" fill="#ADB9C6"/>
    <polygon id="svg_80" points="2973.95166015625,2008.971923828125 3118.95166015625,2016.971923828125 3125.95166015625,1871.971923828125 2984.95166015625,1864.971923828125 " fill="#362635"/>
    <path id="svg_81" d="m4312.95166,2529.97192c-14,12 -21,31 -22,54c122,-3 304,70 435,37c30,-51 9,-8 -3,-26c-23,2 -15,3 -29,6l-18,3c-70,10 -124,-16 -158,-21c-65,-9 -34,9 -98,-11c-68,-20 -62,8 -106,-24c20,-16 -2,-7 28,-15c23,-5 320,62 371,49c34,-9 10,3 27,-16c-41,-14 -29,6 -74,2c-59,-4 -25,-20 -36,-48c-57,-3 -101,-18 -155,-21c4,-38 39,-43 58,-72c-17,-6 -27,2 -39,15c-31,-4 -20,23 -32,-24c4,66 13,38 -29,84c30,7 61,10 94,16c21,4 28,7 46,10c57,11 39,6 57,20c-59,49 -167,-23 -317,-18z" fill="#5399C3"/>
    <polygon id="svg_82" points="2091.95166015625,1971.971923828125 2235.95166015625,1974.971923828125 2242.95166015625,1830.971923828125 2097.95166015625,1828.971923828125 " fill="#362635"/>
    <path id="svg_83" d="m207.95166,1956.97192l18,1c16,-23 -31,-12 39,-21l5,58l6,10l8,41c-49,30 -16,43 -97,46l-38,11c-5,-44 -1,-33 -14,-75l-5,-19l-3,-37c16,-18 59,-22 81,-15zm-117,-16l32,189c55,7 30,-8 87,-22c49,-12 65,-5 114,-2l-9,-38c4,-55 -15,-113 -21,-170c-107,42 -109,29 -203,43z" fill="#FEFEFE"/>
    <path id="svg_84" d="m2843.95166,2698.97192l-2,-51l52,3l-3,51l-47,-3zm-55,-21l3,70l149,8l4,-151l-55,0l-91,-3l-10,76z" fill="#FCFCFA"/>
    <path id="svg_85" d="m677.95166,2200.97192c3,1 6,1 7,5c9,27 -10,-5 37,23c25,14 17,10 36,27l74,52l7,-75c-13,-7 -150,-127 -167,-151l-22,-15l-33,82c14,18 34,38 61,52z" fill="#EE8E4F"/>
    <path id="svg_86" d="m2329.95166,2134.97192l-42,-2l-10,33c-6,18 1,5 -8,21l-43,-7l0,-52l-49,1l-1,97l84,4c1,2 1,6 2,8c1,2 2,5 3,8l9,22c5,8 -28,15 22,15c44,-1 13,-21 38,-49c84,3 69,11 95,-11l-1,-32l-103,-7l4,-49z" fill="#362635"/>
    <path id="svg_87" d="m2734.95166,2872.97192c-18,20 27,20 -38,15l-58,-50l-5,98l91,4c19,35 -8,22 19,51c58,0 30,5 46,-48l100,1l-4,-46l-86,-4c-17,-23 1,-42 -31,-52c-37,-11 -31,10 -34,31z" fill="#362635"/>
    <path id="svg_88" d="m3753.95166,2069.97192l4,-23l-20,-94l196,-47l90,376l-85,14c13,31 30,48 67,50l39,-10c-1,-82 -78,-358 -103,-452c-51,3 -186,32 -221,56l33,130z" fill="#342433"/>
    <path id="svg_89" d="m4662.95166,1344.97192l23,2c0,-24 -22,3 22,-29c46,-33 256,-132 273,-171c-40,11 -246,133 -284,159c27,-63 60,-137 90,-201l74,-150c18,-44 22,-32 1,-46c-11,40 -73,161 -95,207c-26,56 -76,140 -94,191c-7,-72 -10,-213 -34,-267l4,146c4,50 9,111 20,159z" fill="#96B6CA"/>
    <path id="svg_90" d="m1451.95166,1667.97192l24,755c20,-62 15,-293 15,-377l-11,-297c-1,-50 -7,-76 21,-100l-53,-4l4,23z" fill="#FFA65A"/>
    <path id="svg_91" d="m90.95166,1940.97192c94,-14 96,-1 203,-43l-16,-73l-202,34l15,82z" fill="#FEFEFE"/>
    <path id="svg_92" d="m1276.95166,3460.97192c-15,-15 -21,-29 -30,-38c-11,-11 20,18 -16,-12c-2,-1 -5,-4 -6,-5l-12,-11l-27,193c36,19 83,22 124,28l-33,-155z" fill="#3BD98F"/>
    <path id="svg_93" d="m4618.95166,4348.97192l29,116l178,-64l-1,-15l3,-44c-79,10 -126,9 -209,7z" fill="#873C36"/>
    <path id="svg_94" d="m1699.95166,224.97192l-17,-5c3,34 4,51 15,83c9,26 19,52 35,56c-22,-2 0,3 -26,-9c-29,-13 -2,-8 -31,-13c14,41 37,37 80,45l-17,115c35,3 15,8 48,-8c-56,3 -18,4 -32,-13l16,-86c99,26 142,-9 190,-93l-19,-6c-22,38 -20,48 -57,70c-26,17 -58,31 -96,13c25,-29 84,-51 99,-147l-18,3c-11,73 -51,90 -91,125l31,-157l-17,-1l-32,158c-46,-15 -57,-85 -61,-130z" fill="#ADB9C6"/>
    <path id="svg_95" d="m4946.95166,1884.97192c2,-1 4,-4 5,-5l20,-22c3,-6 8,-15 13,-23c12,-20 18,-30 25,-54c35,12 42,29 84,28c71,-1 66,-32 66,-32c-46,3 -59,23 -113,6l84,-33c34,-27 11,2 26,-36c-41,23 -69,50 -126,50c19,-42 61,-95 71,-137l-8,-3c-18,23 -60,108 -79,122c-11,-69 -10,-89 18,-149l-14,1c-33,58 -31,95 -16,160c-71,-29 -64,-70 -65,-157l-11,-7c-27,156 50,165 70,183c-31,60 -47,69 -50,108z" fill="#ADB9C6"/>
    <path id="svg_96" d="m4132.95166,4371.97192l5,21c31,37 23,28 82,43c35,9 79,19 106,28l15,-102c-41,4 -79,6 -120,2c-38,-4 -83,-23 -88,8z" fill="#873C36"/>
    <path id="svg_97" d="m4918.95166,2852.97192c12,-12 0,1 17,-18c1,-1 6,-8 8,-11c63,49 106,24 168,-3l0,-9l-3,-14c-39,27 -73,54 -134,26c30,-9 33,-5 66,-21c36,-18 34,-11 53,-45l-10,-5c-30,27 -70,55 -124,51c13,-28 28,-44 39,-76c-2,2 -6,4 -8,5l-43,53c-17,-55 -5,-99 21,-144l-17,-3c-26,54 -35,87 -20,155c-34,-9 -40,-13 -52,-49c-11,-36 -6,-68 -2,-105l-15,-5c-6,45 -12,77 4,122c21,58 28,27 55,60l-3,36z" fill="#ADB9C6"/>
    <path id="svg_98" d="m4853.95166,4663.97192c-11,13 1,10 -29,21c-8,3 -30,6 -39,8c-29,4 -58,6 -83,9l7,39c34,11 251,-41 269,-50l23,-17c-42,-9 -112,-25 -148,-10z" fill="#362635"/>
    <path id="svg_99" d="m2687.95166,3649.97192c40,-4 12,14 33,-40l7,-15c15,29 21,54 62,58c9,-22 9,-48 10,-74c2,-65 -5,-51 -19,-58c-33,21 -7,29 -28,60c-16,-30 -27,-64 -68,-60c-3,37 -16,104 3,129z" fill="#FCFCFA"/>
    <path id="svg_100" d="m4159.95166,2383.97192c12,16 56,46 73,59c19,13 25,15 40,26c26,20 19,19 52,30l16,-57c-54,-24 -116,-84 -176,-99c0,11 0,6 -2,18c-3,23 -1,-12 -3,23z" fill="#873C36"/>
    <path id="svg_101" d="m4290.95166,4701.97192c-41,-2 -148,11 -157,-31c-59,5 -108,12 -139,33l282,43c10,-17 -1,14 10,-22c5,-14 3,-10 4,-23z" fill="#342433"/>
    <polygon id="svg_102" points="4428.95166015625,3593.971923828125 4468.95166015625,3557.971923828125 4449.95166015625,3260.971923828125 4429.95166015625,3260.971923828125 " fill="#2EBF7B"/>
    <path id="svg_103" d="m2308.95166,3540.97192c45,-28 27,28 60,-18c-29,-32 -57,-25 -93,-12c-4,37 -17,59 54,75c-46,33 -43,-24 -66,30c46,24 106,37 108,-41l-63,-34z" fill="#FCFCFA"/>
    <path id="svg_104" d="m225.95166,1957.97192c3,40 -16,28 -47,23c2,4 5,4 6,10l4,46c21,18 -2,10 32,16c-32,13 -12,0 -39,21c6,-3 8,-8 5,18c81,-3 48,-16 97,-46l-8,-41c-20,15 15,15 -22,12c-35,-4 -9,8 -18,-18l34,-4l-5,-58c-70,9 -23,-2 -39,21z" fill="#FEFEFE"/>
    <polygon id="svg_105" points="2767.95166015625,2150.971923828125 2820.95166015625,2149.971923828125 2822.95166015625,1955.971923828125 2777.95166015625,1959.971923828125 " fill="#342934"/>
    <path id="svg_106" d="m2600.95166,3585.97192l-6,12c-11,-9 -19,-3 0,-31c7,15 4,-14 6,19zm-68,57c61,4 9,-3 62,-23c19,11 20,22 47,29c11,-26 -2,-47 -11,-78c-2,-5 -10,-35 -11,-35c-17,-34 7,-10 -25,-22c-24,11 -10,-15 -39,63c-10,25 -17,41 -23,66z" fill="#FCFCFA"/>
    <path id="svg_107" d="m2511.95166,3616.97192c-6,-7 10,-9 -20,-14c-33,-5 11,5 -29,4c-25,-1 -30,-1 -32,-29c-5,-61 36,-17 85,-31c-13,-30 -30,-47 -74,-36c-105,26 -10,202 70,106z" fill="#F9F5F6"/>
    <path id="svg_108" d="m4693.95166,2413.97192c20,19 30,22 57,32c8,4 17,7 25,11c31,14 9,0 29,17c5,-7 1,4 10,-18c5,-12 3,-7 7,-21c6,-19 8,-36 11,-56l-55,-25c-16,46 -28,50 -84,60z" fill="#64ADD4"/>
    <path id="svg_109" d="m3088.95166,2708.97192l49,6l-1,60l56,-5c-10,-38 -3,-62 -1,-103l-109,-5l6,47z" fill="#342433"/>
    <path id="svg_110" d="m2769.95166,2244.97192c26,5 50,7 76,8c68,4 54,-6 62,-21c-15,-29 28,-14 -43,-24c-21,-2 -22,3 -45,-4c-4,-8 -4,-2 -7,-19c0,-4 1,-19 1,-24l-43,0l-1,84z" fill="#FCFCFA"/>
    <path id="svg_111" d="m1378.95166,1415.97192c65,-22 70,-73 66,-150l-30,-9c-42,47 -37,87 -36,159z" fill="#FEAA96"/>
    <path id="svg_112" d="m1212.95166,3394.97192l12,11c1,1 4,4 6,5c36,30 5,1 16,12c9,9 15,23 30,38c-6,-42 -7,-77 -14,-117l-16,-85c-10,-26 -7,-15 -18,-24c-8,28 -18,147 -16,160z" fill="#2EBF7B"/>
    <path id="svg_113" d="m1162.95166,1594.97192l-13,35c73,28 162,-21 203,-57l2,-27c-61,40 -93,53 -192,49z" fill="#E9948B"/>
    <path id="svg_114" d="m3124.95166,2945.97192c3,6 13,-5 1,57l48,-27c5,-19 -2,-9 7,-29l-1,-46l-83,-3c-28,6 -6,-1 -24,13l1,31l51,4z" fill="#342433"/>
    <path id="svg_115" d="m3999.95166,2827.97192c12,-7 7,-5 18,-26c6,-12 11,-26 19,-38c20,-31 36,-41 44,-72c-19,-28 -10,-19 -33,-35c-6,58 -55,122 -76,179l28,-8z" fill="#2EBF7B"/>
    <polygon id="svg_116" points="3068.95166015625,2609.971923828125 3145.95166015625,2617.971923828125 3148.95166015625,2563.971923828125 3041.95166015625,2560.971923828125 3041.95166015625,2603.971923828125 " fill="#362635"/>
    <path id="svg_117" d="m2733.95166,1914.97192l46,2l6,-107l-42,1c-12,27 -11,68 -10,104z" fill="#342433"/>
    <polygon id="svg_118" points="2052.95166015625,2172.971923828125 2030.95166015625,2177.971923828125 2031.95166015625,2218.971923828125 2130.95166015625,2223.971923828125 2132.95166015625,2175.971923828125 " fill="#342433"/>
    <polygon id="svg_119" points="2306.95166015625,2427.971923828125 2306.95166015625,2377.971923828125 2213.95166015625,2373.971923828125 2214.95166015625,2423.971923828125 " fill="#362635"/>
    <polygon id="svg_120" points="2865.95166015625,2455.971923828125 2864.95166015625,2506.971923828125 2957.95166015625,2510.971923828125 2959.95166015625,2464.971923828125 " fill="#342433"/>
    <path id="svg_121" d="m677.95166,2228.97192c29,19 53,34 80,55c29,22 47,37 81,57l-7,-33l-74,-52c-19,-17 -11,-13 -36,-27c-47,-28 -28,4 -37,-23c-1,-4 -4,-4 -7,-5l0,28z" fill="#F2956B"/>
    <path id="svg_122" d="m2030.95166,2311.97192c127,7 86,30 96,-24l-42,-12c-15,-2 -32,-2 -47,-4l-7,40z" fill="#2D2333"/>
    <path id="svg_123" d="m1675.95166,336.97192c-5,-28 -20,-45 -24,-77c-5,-50 25,-59 -31,-60c-4,32 6,40 14,72c22,96 26,63 41,65z" fill="#D8C3B3"/>
    <path id="svg_124" d="m3575.95166,3616.97192l9,26l34,-91c-8,-13 -10,-19 -19,-30c-16,-18 -12,-11 -22,-18l-2,113z" fill="#3BD98F"/>
    <path id="svg_125" d="m281.95166,2791.97192c1,-44 -14,-58 -22,-99c-6,-32 6,-62 -40,-43c0,0 43,126 62,142z" fill="#D8C3B3"/>
    <path id="svg_126" d="m1094.95166,1409.97192c30,32 105,57 141,9l-141,-9z" fill="#F9F5F6"/>
    <path id="svg_127" d="m186.95166,2091.97192c3,-26 1,-21 -5,-18c0,-2 1,-9 1,-7l6,-30l-54,-9c13,42 9,31 14,75l38,-11z" fill="#FEFEFE"/>
    <path id="svg_128" d="m4285.95166,1108.97192c38,0 8,20 33,-24c38,-67 69,-70 14,-81c-2,3 -3,5 -4,7l-7,22c-6,17 -2,10 -11,27c-10,20 -17,28 -25,49z" fill="#D8C3B3"/>
    <polygon id="svg_129" points="3203.95166015625,2568.971923828125 3198.95166015625,2517.971923828125 3151.95166015625,2518.971923828125 3145.95166015625,2568.971923828125 " fill="#2D2333"/>
    <path id="svg_130" d="m129.95166,2008.97192l50,-28c2,1 10,2 23,7l5,-31c-22,-7 -65,-3 -81,15l3,37z" fill="#FEFEFE"/>
    <path id="svg_131" d="m129.95166,2008.97192l5,19l54,9l-4,-46c-1,-6 -4,-6 -6,-10c31,5 50,17 47,-23l-18,-1l-5,31c-13,-5 -21,-6 -23,-7l-50,28z" fill="#FEFEFE"/>
    <polygon id="svg_132" points="2340.95166015625,2977.971923828125 2388.95166015625,2975.971923828125 2392.95166015625,2927.971923828125 2339.95166015625,2925.971923828125 " fill="#342433"/>
    <polygon id="svg_133" points="2890.95166015625,2701.971923828125 2893.95166015625,2650.971923828125 2841.95166015625,2647.971923828125 2843.95166015625,2698.971923828125 " fill="#342934"/>
    <polygon id="svg_134" points="2390.95166015625,2915.971923828125 2392.95166015625,2927.971923828125 2436.95166015625,2932.971923828125 2439.95166015625,2878.971923828125 2388.95166015625,2879.971923828125 " fill="#2D2333"/>
    <polygon id="svg_135" points="2417.95166015625,2320.971923828125 2418.95166015625,2335.971923828125 2465.95166015625,2334.971923828125 2462.95166015625,2282.971923828125 2418.95166015625,2281.971923828125 " fill="#342934"/>
    <polygon id="svg_136" points="2567.95166015625,2389.971923828125 2616.95166015625,2393.971923828125 2616.95166015625,2343.971923828125 2566.95166015625,2344.971923828125 " fill="#342433"/>
    <polygon id="svg_137" points="2426.95166015625,2102.971923828125 2477.95166015625,2106.971923828125 2475.95166015625,2057.971923828125 2427.95166015625,2055.971923828125 " fill="#342934"/>
    <polygon id="svg_138" points="2437.95166015625,2973.971923828125 2487.95166015625,2981.971923828125 2483.95166015625,2925.971923828125 2445.95166015625,2931.971923828125 2436.95166015625,2932.971923828125 " fill="#342433"/>
    <polygon id="svg_139" points="2651.95166015625,2687.971923828125 2702.95166015625,2694.971923828125 2694.95166015625,2640.971923828125 2651.95166015625,2641.971923828125 " fill="#2D2333"/>
    <polygon id="svg_140" points="2586.95166015625,2986.971923828125 2590.95166015625,2937.971923828125 2539.95166015625,2938.971923828125 2538.95166015625,2983.971923828125 " fill="#342433"/>
    <polygon id="svg_141" points="2623.95166015625,2043.971923828125 2674.95166015625,2050.971923828125 2671.95166015625,1996.971923828125 2625.95166015625,2000.971923828125 " fill="#2C222C"/>
    <polygon id="svg_142" points="2017.95166015625,2368.971923828125 2020.95166015625,2316.971923828125 1974.95166015625,2316.971923828125 1971.95166015625,2364.971923828125 " fill="#2D2333"/>
    <polygon id="svg_143" points="2677.95166015625,2103.971923828125 2726.95166015625,2105.971923828125 2724.95166015625,2057.971923828125 2681.95166015625,2054.971923828125 " fill="#342433"/>
    <path id="svg_144" d="m2465.95166,2334.97192l-47,1l-3,48l40,1c6,-12 2,10 8,-23c2,-7 2,-19 2,-27z" fill="#FCFCFA"/>
    <polygon id="svg_145" points="1982.95166015625,2163.971923828125 2029.95166015625,2169.971923828125 2028.95166015625,2118.971923828125 1982.95166015625,2119.971923828125 " fill="#342433"/>
    <polygon id="svg_146" points="2426.95166015625,2145.971923828125 2426.95166015625,2102.971923828125 2381.95166015625,2100.971923828125 2376.95166015625,2150.971923828125 " fill="#2D2333"/>
    <polygon id="svg_147" points="2488.95166015625,2924.971923828125 2535.95166015625,2929.971923828125 2538.95166015625,2881.971923828125 2491.95166015625,2879.971923828125 " fill="#342433"/>
    <polygon id="svg_148" points="3086.95166015625,2796.971923828125 3085.95166015625,2757.971923828125 3041.95166015625,2751.971923828125 3034.95166015625,2802.971923828125 " fill="#342433"/>
    <polygon id="svg_149" points="3013.95166015625,2360.971923828125 3015.95166015625,2314.971923828125 2966.95166015625,2311.971923828125 2963.95166015625,2352.971923828125 " fill="#FEFEFE"/>
    <path id="svg_150" d="m2126.95166,2287.97192c-10,54 31,31 -96,24l7,-40c15,2 32,2 47,4l42,12zm-106,29l-3,52l9,-2l2,-46l101,1l-4,-50l-99,-2l-6,47z" fill="#867C85"/>
    <path id="svg_151" d="m3111.95166,2311.97192l-6,-39c-60,-4 -44,-18 -50,36l56,3z" fill="#FCFCFA"/>
    <path id="svg_152" d="m2488.95166,2924.97192l-5,1l4,56l-50,-8l-5,9l54,3l15,-52l38,5l51,-1l-4,49l7,-52l-51,-5c1,-11 3,-18 2,-28c-1,-18 -1,-10 -6,-20l-3,48l-47,-5z" fill="#928C92"/>
    <path id="svg_153" d="m1136.95166,1630.97192l13,-1l13,-35l-79,-12l12,11c28,29 9,22 41,37z" fill="#3BD98F"/>
    <path id="svg_154" d="m1201.95166,1197.97192c57,-7 59,1 109,14c-19,-32 -81,-66 -109,-14z" fill="#36242C"/>
    <polygon id="svg_155" points="2527.95166015625,2387.971923828125 2567.95166015625,2389.971923828125 2566.95166015625,2344.971923828125 2520.95166015625,2342.971923828125 " fill="#FCFCFA"/>
    <path id="svg_156" d="m2427.95166,2055.97192l48,2c-2,-1 -21,-8 -21,-8c-25,-13 -10,-4 -22,-13l3,-62l-10,52c-5,25 -5,17 -7,21l-37,-3l10,-137c-15,31 -16,99 -12,138l48,10z" fill="#928C92"/>
    <path id="svg_157" d="m156.95166,2764.97192c1,-16 -3,-12 12,-12l-2,-43l-37,3c-2,50 -7,32 27,52z" fill="#FDD8B7"/>
    <path id="svg_158" d="m825.95166,700.97192l14,-10c9,-37 10,-46 -36,-38c-3,43 -5,27 22,48z" fill="#FDD8B7"/>
    <path id="svg_159" d="m611.95166,806.97192c-5,-15 -5,-9 14,-9c-5,-43 -1,-44 -43,-30c-2,33 -6,33 29,39z" fill="#FDD8B7"/>
    <path id="svg_160" d="m325.95166,2676.97192l13,-7c7,-36 7,-47 -36,-36c-7,38 0,28 23,43z" fill="#FDD8B7"/>
    <path id="svg_161" d="m5047.95166,2679.97192c22,-25 22,-14 9,-46c-54,4 -21,1 -34,16c0,67 -9,9 25,30z" fill="#FDD8B7"/>
    <path id="svg_162" d="m4360.95166,1082.97192l11,9c36,-10 33,-22 28,-46c-35,1 -41,-2 -39,37z" fill="#FDD8B7"/>
    <path id="svg_163" d="m1869.95166,229.97192l18,-3l19,-19c-15,-29 -17,-28 -45,-19c-1,37 -4,15 8,41z" fill="#FDD8B7"/>
    <path id="svg_164" d="m4053.95166,995.97192l15,10c9,-17 13,-22 12,-47l-42,-3c1,17 -4,33 15,40z" fill="#FDD8B7"/>
    <path id="svg_165" d="m2651.95166,2687.97192c-13,-1 -26,-3 -38,-2c-39,2 -12,2 -22,6l40,0l18,53l-1,-39c25,-14 25,-6 55,-12c10,-54 1,-42 -9,-53l8,54l-51,-7z" fill="#928C92"/>
    <path id="svg_166" d="m1792.95166,196.97192l17,1c36,-24 19,-49 -14,-40c-14,19 -11,-22 -10,21c0,26 -2,3 7,18z" fill="#FDD8B7"/>
    <path id="svg_167" d="m1682.95166,219.97192l17,5c18,-36 30,-42 -15,-49c-9,13 -11,-1 -10,22c1,22 -1,4 8,22z" fill="#F3CCAF"/>
    <path id="svg_168" d="m719.95166,656.97192l0,30c27,12 15,2 21,17c0,-15 -3,-10 16,-10l5,-37c-21,-4 -33,-2 -42,0z" fill="#FDD8B7"/>
    <path id="svg_169" d="m1941.95166,290.97192l19,6c1,-1 4,-3 4,-2c0,0 13,-3 16,-17c7,-31 1,-16 -18,-27c-36,20 -15,5 -21,40z" fill="#FDD8B7"/>
    <path id="svg_170" d="m4146.95166,968.97192l14,4c16,-3 16,-3 26,-9c-9,-40 3,-33 -42,-33l2,38z" fill="#FDD8B7"/>
    <path id="svg_171" d="m124.95166,2805.97192l9,-7l-8,-30c-46,-19 -57,37 -1,37z" fill="#FDD8B7"/>
    <path id="svg_172" d="m5194.95166,1674.97192c-24,-5 -9,-6 -36,0l1,37c46,-2 34,21 35,-37z" fill="#FDD8B7"/>
    <path id="svg_173" d="m5159.95166,1776.97192l32,-14l24,-5c0,-27 11,-10 -10,-33c-18,5 -24,8 -46,52z" fill="#F3CCAF"/>
    <path id="svg_174" d="m4144.95166,2383.97192l15,0c2,-35 0,0 3,-23c2,-12 2,-7 2,-18l0,-22l-30,6l10,57z" fill="#98C3D7"/>
    <path id="svg_175" d="m4224.95166,940.97192l5,36c17,0 13,-5 14,10c24,-26 15,-1 23,-37l-27,-16l-15,7z" fill="#FDD8B7"/>
    <path id="svg_176" d="m646.95166,761.97192l18,-4c-4,-39 12,-22 -21,-42c-40,26 -15,34 3,46z" fill="#F3CCAF"/>
    <path id="svg_177" d="m417.95166,2686.97192l16,-1c4,-7 7,-6 7,-18c1,-20 -3,-12 -9,-22c-35,-4 -47,20 -14,41z" fill="#FDD8B7"/>
    <path id="svg_178" d="m1061.95166,1170.97192c19,18 3,8 36,13c24,4 15,1 41,11c-15,-28 -49,-54 -77,-24z" fill="#341C29"/>
    <path id="svg_179" d="m5018.95166,1597.97192l14,-1l27,1c0,-41 7,-16 -12,-39c-36,9 -24,-5 -29,39z" fill="#FDD8B7"/>
    <path id="svg_180" d="m2511.95166,2336.97192c0,5 0,24 1,26c7,26 -5,11 15,25l-7,-45l46,2l50,-1l-48,-10l-49,2l4,-47l-12,48z" fill="#A69CA4"/>
    <path id="svg_181" d="m915.95166,727.97192c10,-11 7,-5 16,-12c29,-33 13,-33 -19,-39c-12,24 -6,29 3,51z" fill="#FDD8B7"/>
    <path id="svg_182" d="m3180.95166,2946.97192c-9,20 -2,10 -7,29l-48,27c12,-62 2,-51 -1,-57l0,61l52,1l4,-61z" fill="#928C92"/>
    <path id="svg_183" d="m2712.95166,2202.97192c15,-25 9,-17 7,-50l51,8l43,0c0,5 -1,20 -1,24c3,17 3,11 7,19l4,-49l-3,-5l-53,1l-49,2l-6,50z" fill="#867C85"/>
    <path id="svg_184" d="m4926.95166,1593.97192l11,7c27,-13 21,-4 25,-37c-36,-16 -44,-6 -36,30z" fill="#FDD8B7"/>
    <path id="svg_185" d="m2623.95166,2043.97192c14,11 -3,4 19,11c9,3 23,3 32,3c-4,33 -6,22 3,46l4,-49l43,3l-43,-11c1,-6 2,-23 1,-29c-4,-22 -5,-13 -11,-21l3,54l-51,-7z" fill="#A69CA4"/>
    <path id="svg_186" d="m5108.95166,2797.97192l3,14l35,-3c2,-40 4,-31 -28,-38c-12,17 -2,-5 -10,27z" fill="#FDD8B7"/>
    <path id="svg_187" d="m5083.95166,2752.97192l10,5c39,-2 14,6 34,-15c-6,-44 2,-3 -15,-23c-34,12 -19,-4 -29,33z" fill="#FDD8B7"/>
    <path id="svg_188" d="m4951.95166,2638.97192l17,3c38,-6 20,7 26,-29c-36,-18 -30,-13 -43,26z" fill="#FDD8B7"/>
    <path id="svg_189" d="m4862.95166,2634.97192l15,5c1,-1 4,-4 4,-2l12,-12c12,-26 7,1 2,-27l-29,-6l-4,42z" fill="#FDD8B7"/>
    <path id="svg_190" d="m5093.95166,1623.97192l8,3c36,-7 35,-1 23,-38c-50,5 -13,-1 -33,21l2,14z" fill="#FDD8B7"/>
    <path id="svg_191" d="m2329.95166,2134.97192l-51,-4c-21,59 18,43 -37,46l-15,-49l0,52l43,7c9,-16 2,-3 8,-21l10,-33l42,2z" fill="#928C92"/>
    <path id="svg_192" d="m1221.95166,1293.97192c44,-2 40,0 50,-27c-35,20 -36,11 -62,-12l12,39z" fill="#6F423C"/>
    <path id="svg_193" d="m3013.95166,2360.97192l-50,-8l3,-41l49,3c-24,-10 -22,-11 -54,-4l-3,54c37,4 31,7 55,-4z" fill="#A69CA4"/>
    <path id="svg_194" d="m1982.95166,2163.97192c21,14 15,9 48,14l22,-5c-24,-21 -10,-28 -24,-54l1,51l-47,-6z" fill="#928C92"/>
    <path id="svg_195" d="m3111.95166,2311.97192l-56,-3c6,-54 -10,-40 50,-36c-22,-12 -20,-11 -49,-7l-6,46c13,3 16,7 28,7c29,1 -14,4 17,-1l16,-6z" fill="#867C85"/>
    <path id="svg_196" d="m1110.95166,1266.97192l-14,-9c-16,-7 -24,-6 -40,-26c1,37 17,39 54,35z" fill="#602C31"/>
    <path id="svg_197" d="m275.95166,2004.97192l-6,-10l-34,4c9,26 -17,14 18,18c37,3 2,3 22,-12z" fill="#FEFEFE"/>
    <path id="svg_198" d="m2366.95166,2384.97192l2,-52l50,3l-1,-15l-50,9c-5,17 -6,12 -7,32c0,20 5,23 6,23z" fill="#928C92"/>
    <path id="svg_199" d="m2340.95166,2977.97192l-1,-52l53,2l-2,-12l-52,8c-5,17 -7,12 -6,33c1,17 6,17 8,21z" fill="#A69CA4"/>
    <polygon id="svg_200" points="2167.95166015625,2028.971923828125 2041.95166015625,2014.971923828125 2046.95166015625,1912.971923828125 2032.95166015625,2017.971923828125 " fill="#867C85"/>
    <polygon id="svg_201" points="2436.95166015625,2932.971923828125 2445.95166015625,2931.971923828125 2442.95166015625,2874.971923828125 2385.95166015625,2870.971923828125 2388.95166015625,2879.971923828125 2439.95166015625,2878.971923828125 " fill="#928C92"/>
    <path id="svg_202" d="m2426.95166,2145.97192l-50,5l5,-50c-14,24 -13,19 -5,52c13,3 15,6 31,3c24,-3 5,1 19,-10z" fill="#928C92"/>
    <path id="svg_203" d="m3029.95166,2780.97192l8,27c12,0 21,3 30,0c23,-6 6,1 19,-11l-52,6l7,-51l-12,29z" fill="#928C92"/>
    <path id="svg_204" d="m181.95166,2073.97192c27,-21 7,-8 39,-21c-34,-6 -11,2 -32,-16l-6,30c0,-2 -1,5 -1,7z" fill="#FEFEFE"/>
    <polygon id="svg_205" points="2788.95166015625,2677.971923828125 2798.95166015625,2601.971923828125 2889.95166015625,2604.971923828125 2795.95166015625,2594.971923828125 " fill="#867C85"/>
    <path id="svg_206" d="m2594.95166,3597.97192l6,-12c-2,-33 1,-4 -6,-19c-19,28 -11,22 0,31z" fill="#89ADC3"/>
    <path id="svg_207" d="m866.95166,4571.97192l8,28c8,-13 12,17 6,-15c-5,-26 3,-3 -14,-13z" fill="#E8E6E8"/>
    <path id="svg_208" d="m2552.95166,2589.97192l0,-57l-44,-4l42,10l0,44c0,-1 1,5 2,7z" fill="#A69CA4"/>
    <path id="svg_209" d="m892.95166,4544.97192l15,29c-1,-53 2,-20 -15,-29z" fill="#E8E6E8"/>
    <rect x="-2330.0533" y="-1312.36846" id="svg_210" height="2667" width="1556" transform="matrix(1.06811,0.0285811,-0.0294924,1.0351,4253.07,2392.43) " stroke-width="7.87402" stroke="#FEFEFE" fill="#FEFEFE"/>
   </g>
  </g>
 </g>
</svg>