<svg width="488.82000000000005" height="755.1500000000001" xmlns="http://www.w3.org/2000/svg" xmlns:xlink="http://www.w3.org/1999/xlink">
 <defs>
  <linearGradient y2="0.000035" x2="0.500037" y1="1.000138" x1="0.500037" id="15164562-d11a-4880-a4be-123e1b3db71d">
   <stop stop-opacity="0.25" stop-color="gray" offset="0"/>
   <stop stop-opacity="0.12" stop-color="gray" offset="0.54"/>
   <stop stop-opacity="0.1" stop-color="gray" offset="1"/>
  </linearGradient>
  <linearGradient xlink:href="#15164562-d11a-4880-a4be-123e1b3db71d" y2="145.7" x2="411.34" y1="295.04" x1="411.34" id="4387c4a6-2b07-43b0-875b-db8294e1d525"/>
  <linearGradient xlink:href="#15164562-d11a-4880-a4be-123e1b3db71d" gradientTransform="translate(-198.33 -72.44)" y2="72.43" x2="545.52" y1="654.39" x1="545.52" id="b3ecf4c1-be91-4dc4-9933-d34be9a535f7"/>
  <linearGradient xlink:href="#15164562-d11a-4880-a4be-123e1b3db71d" y2="322.86" x2="725.88" y1="600.13" x1="725.88" id="a2779652-f4e8-430c-84f8-85803e1803c0"/>
  <linearGradient xlink:href="#15164562-d11a-4880-a4be-123e1b3db71d" gradientTransform="translate(-198.33 -72.44)" y2="758.57" x2="637.94" y1="827.57" x1="637.94" id="21cc8c64-f270-4c0a-a12f-47a949bb1355"/>
  <linearGradient y2="-0.00008" x2="0.499965" y1="0.999928" x1="0.499965" id="1cb52d5d-ff8e-4354-9b08-01122ab0b5ee">
   <stop stop-opacity="0.12" offset="0"/>
   <stop stop-opacity="0.09" offset="0.55"/>
   <stop stop-opacity="0.02" offset="1"/>
  </linearGradient>
  <linearGradient xlink:href="#15164562-d11a-4880-a4be-123e1b3db71d" y2="262.83" x2="396.05" y1="399.86" x1="396.05" id="07be2ee9-c937-4187-b89e-5aac7e382593"/>
  <linearGradient xlink:href="#15164562-d11a-4880-a4be-123e1b3db71d" y2="378" x2="386.87" y1="501.4" x1="386.87" id="41444764-58a6-4e8b-8ef1-42407163ea5e"/>
  <linearGradient xlink:href="#15164562-d11a-4880-a4be-123e1b3db71d" y2="494.16" x2="382.07" y1="603.69" x1="382.07" id="d5f06af9-7d77-4f55-b81c-ea1018bd06e7"/>
  <linearGradient xlink:href="#1cb52d5d-ff8e-4354-9b08-01122ab0b5ee" y2="323.57" x2="347.18" y1="384.57" x1="347.18" id="a0f95284-1d1b-41ad-8ba2-df33ef14eff8"/>
 </defs>
 <title>mail_2</title>
 <g>
  <title>background</title>
  <rect fill="none" id="canvas_background" height="757.15" width="490.82" y="-1" x="-1"/>
 </g>
 <g>
  <title>Layer 1</title>
  <path id="svg_4" fill="url(#15164562-d11a-4880-a4be-123e1b3db71d)" d="m481.044309,510.26a81.21,81.21 0 0 0 -161,-15.14l-249.59,-6.77l2.74,42.88s-35.59,82.12 151.46,104l0,83l216.24,0l0,-138a81.16,81.16 0 0 0 40.15,-69.97z"/>
  <path id="svg_5" fill="#f6b9ad" d="m81.764309,533.03s-34.08,78.64 145.05,99.62l0,79.52l207.09,0l0,-210.6l-354.8,-9.61l2.66,41.07z"/>
  <path id="svg_6" fill="url(#4387c4a6-2b07-43b0-875b-db8294e1d525)" d="m185.264309,204.86l0,0a38.18,38.18 0 0 1 -52.5,11.93l-111.19,-73.27a38.18,38.18 0 0 1 -11.93,-52.5l0,0a38.18,38.18 0 0 1 52.46,-11.93l111.19,73.27a38.18,38.18 0 0 1 11.97,52.5z"/>
  <path id="svg_7" fill="#f6b9ad" d="m179.104309,200.85l0,0a35.49,35.49 0 0 1 -48.8,11.09l-103.39,-68.11a35.49,35.49 0 0 1 -11.09,-48.8l0,0a35.49,35.49 0 0 1 48.8,-11.09l103.37,68.12a35.49,35.49 0 0 1 11.11,48.79z"/>
  <circle id="svg_8" fill="#f6b9ad" r="77.769997" cy="512.94" cx="394.584305"/>
  <rect y="0" id="svg_9" fill="url(#b3ecf4c1-be91-4dc4-9933-d34be9a535f7)" ry="12.25" rx="12.25" height="581.96" width="322.42" x="70.414305"/>
  <rect id="svg_10" fill="#565658" ry="13.64" rx="13.64" height="566.24" width="313.7" y="7.87" x="74.774305"/>
  <path id="svg_11" fill="#2bc97f" d="m310.434309,22.06a25.43,25.43 0 0 1 -25.07,21.63l-108.34,0a25.43,25.43 0 0 1 -25.06,-21.63l-57.4,0a11.91,11.91 0 0 0 -11.92,11.91l0,514a11.91,11.91 0 0 0 11.91,11.92l274.14,0a11.91,11.91 0 0 0 11.92,-11.91l0,-514a11.91,11.91 0 0 0 -11.91,-11.92l-58.27,0z"/>
  <rect id="svg_12" fill="#dbdbdb" ry="2" rx="2" height="4.37" width="69.91" y="28.84" x="197.114305"/>
  <circle id="svg_13" fill="#dbdbdb" r="2.62" cy="30.59" cx="281.874305"/>
  <path id="svg_14" fill="url(#a2779652-f4e8-430c-84f8-85803e1803c0)" d="m444.864309,526.65l0,0c-22.57,5.22 -38.06,-9.5 -43.28,-32.06l-51.86,-192.56a42.24,42.24 0 0 1 31.55,-50.51l0,0a42.24,42.24 0 0 1 50.51,31.55l42.32,197.5c5.22,22.6 -6.68,40.86 -29.24,46.08z"/>
  <rect id="svg_15" fill="#f6b9ad" transform="rotate(-13.010000228881836 -401.30569458007824,103.91000366210938) " ry="35.39" rx="35.39" height="282.61" width="70.78" y="433.920004" x="292.554305"/>
  <rect id="svg_16" fill="url(#21cc8c64-f270-4c0a-a12f-47a949bb1355)" height="69" width="296" y="686.15" x="176.034305"/>
  <rect id="svg_17" fill="#565658" height="54" width="280" y="694.15" x="184.034305"/>
  <path id="svg_20" fill="#2bc97f" transform="rotate(0.12999999523162842 -313.2257080077978,-73.63999938964427) " d="m168.384307,190.910001l125.83,0a0,0 0 0 1 0,0l0,69.23a4.18,4.18 0 0 1 -4.18,4.18l-117,0a4.61,4.61 0 0 1 -4.61,-4.61l0,-68.8a0,0 0 0 1 0,0l-0.04,0z"/>
  <path id="svg_28" fill="url(#07be2ee9-c937-4187-b89e-5aac7e382593)" d="m161.384309,309.81l0,0a37.9,37.9 0 0 1 -52.11,11.84l-94.5,-61.53a37.9,37.9 0 0 1 -11.84,-52.11l0,0a37.9,37.9 0 0 1 52.11,-11.84l94.5,61.53a37.9,37.9 0 0 1 11.84,52.11z"/>
  <path id="svg_29" fill="#f6b9ad" d="m156.364309,306.57l0,0a35.49,35.49 0 0 1 -48.8,11.09l-88.51,-57.63a35.49,35.49 0 0 1 -11.09,-48.8l0,0a35.49,35.49 0 0 1 48.8,-11.09l88.51,57.63a35.49,35.49 0 0 1 11.09,48.8z"/>
  <path id="svg_30" fill="url(#41444764-58a6-4e8b-8ef1-42407163ea5e)" d="m142.104309,411.43l0,0a37.72,37.72 0 0 1 -51.87,11.79l-74.58,-48.25a37.72,37.72 0 0 1 -11.79,-51.87l0,0a37.72,37.72 0 0 1 51.87,-11.79l74.57,48.26a37.72,37.72 0 0 1 11.8,51.86z"/>
  <path id="svg_31" fill="url(#d5f06af9-7d77-4f55-b81c-ea1018bd06e7)" d="m123.384309,513.57l0,0a38.06,38.06 0 0 1 -52.34,11.9l-46.19,-33.7a38.06,38.06 0 0 1 -11.9,-52.34l0,0a38.06,38.06 0 0 1 52.34,-11.86l46.19,33.69a38.06,38.06 0 0 1 11.9,52.31z"/>
  <path id="svg_32" fill="#f6b9ad" d="m119.654309,511.06l0,0a35.49,35.49 0 0 1 -48.8,11.09l-43.07,-31.42a35.49,35.49 0 0 1 -11.09,-48.8l0,0a35.49,35.49 0 0 1 48.8,-11.09l43.07,31.42a35.49,35.49 0 0 1 11.09,48.8z"/>
  <rect id="svg_33" fill="url(#a0f95284-1d1b-41ad-8ba2-df33ef14eff8)" height="61" width="204" y="323.57" x="129.624305"/>
  <rect id="svg_34" fill="#69f0ae" height="44" width="190" y="329.57" x="136.624305"/>
  <path id="svg_40" fill="#f6b9ad" d="m138.004309,408.82l0,0a35.49,35.49 0 0 1 -48.8,11.09l-70.16,-45.4a35.49,35.49 0 0 1 -11.09,-48.8l0,0a35.49,35.49 0 0 1 48.8,-11.14l70.16,45.4a35.49,35.49 0 0 1 11.09,48.85z"/>
 </g>
</svg>