<svg width="8430" height="5890" xmlns="http://www.w3.org/2000/svg" clip-rule="evenodd">

 <g>
  <title>background</title>
  <rect fill="none" id="canvas_background" height="5892" width="8432" y="-1" x="-1"/>
 </g>
 <g>
  <title>Layer 1</title>
  <g id="Capa_x0020_1">
   <metadata transform="translate(-1500.0010986328125,-537.5003662109375) " id="CorelCorpID_0Corel-Layer"/>
   <g id="_2385865226864">
    <path id="svg_1" d="m4564.9989,2056.49963c50,226 7,441 -246,443c-214,2 -251,-235 -266,-452l512,9zm-782,346l-23,12l64,18c62,24 39,22 75,70l50,18c-17,40 12,24 -58,34c11,40 41,64 -31,63c-36,-1 -82,-17 -119,-27l-11,8c-22,38 -15,36 -68,40c-22,155 -72,215 -93,497c-14,187 13,372 29,552c19,214 91,924 57,1093l34,-2l0,-67c50,5 89,9 138,10c120,5 148,-18 178,23c38,-47 187,-1187 214,-1359l28,44c9,-113 1,-70 283,-222c61,-33 92,-57 154,-92c27,-15 53,-32 73,-50c68,-63 16,-66 85,-38l-27,-321c-8,-13 -5,1 -14,-33c-9,-36 -1,5 0,-30l-12,-4c-87,-56 -51,6 -162,2c-17,-20 -16,-23 -34,-43l-27,-32c62,-79 12,-89 116,-110l82,-29c-24,-152 -82,-300 -125,-438l-2,-26l-46,8l-43,2l-5,-5c-24,-25 -15,-30 -19,-79l-497,14c-16,27 -4,34 -37,59l-53,19c4,183 -8,366 -154,421z" fill="#418685"/>
    <path id="svg_2" d="m2101.9989,2047.49963c23,109 8,227 -44,318c-105,178 -538,260 -531,-316c83,-31 467,-11 575,-2zm-583,-82c-17,14 4,6 -31,16c-5,2 -32,1 -36,2l-30,77l-5,89l-39,148c-21,244 -20,468 -25,715l51,-8c120,38 221,113 461,140l33,4c46,257 125,1665 181,1751l9,-29c92,9 203,-25 290,4c-4,-349 -5,-698 -5,-1047c0,-267 -24,-778 17,-1018l-19,-6c-22,78 15,8 -21,49l-20,-27c-2,-3 -10,-21 -11,-26c-15,17 -9,34 -92,55c-37,-61 -20,-58 -81,-104c-3,-33 -12,-28 19,-23c38,-15 38,-28 83,-37c-4,-3 -19,-13 -21,-15l59,-58l107,-23c11,-77 6,-80 -28,-123c-90,-42 -121,-213 -126,-310c-31,-77 0,-143 -39,-193l-10,-7c-17,18 37,17 -26,15l-14,-25c-20,-43 2,-20 -31,-57c-186,-22 -375,-3 -562,7l-26,33c-2,3 -10,27 -12,31z" fill="#5B97BF"/>
    <path id="svg_3" d="m5668.9989,2478.49963c69,15 16,12 80,-6c22,-6 46,-16 71,-23c53,-16 70,-19 122,-48c-6,-95 -74,-140 -34,-216c29,-56 89,-109 122,-171l31,50c4,-46 -4,-73 19,-108c16,-24 8,-10 25,-26c35,38 52,93 81,140c97,157 170,243 304,356c133,112 357,221 544,190c102,-17 24,-35 100,-4c-25,-112 -1,-405 3,-541c50,50 94,160 129,226c40,78 106,157 159,203c41,-7 144,-83 191,-115c28,-19 1,2 26,-19c27,-23 17,-16 32,-33c-63,-91 -114,-97 -172,-241c-44,-110 -193,-526 -267,-580c-65,-50 -256,-95 -342,-81c-69,-1 -29,-23 -54,20c-20,34 -3,31 -9,68c-10,59 -12,42 -51,87l-51,62c46,58 74,100 73,194c-74,-9 -118,-45 -158,-81c-49,70 -57,178 -154,198c-91,-149 10,-252 29,-290c-16,-28 -60,-68 -86,-85l-49,2c-66,-84 24,-145 -74,-189c-92,-5 -316,68 -370,122l-396,620c-48,95 67,255 126,319z" fill="#418685"/>
    <path id="svg_4" d="m4246.9989,3429.49963l163,1356l319,7c80,-611 150,-1124 113,-1765c-69,-28 -17,-25 -85,38c-20,18 -46,35 -73,50c-62,35 -93,59 -154,92c-282,152 -274,109 -283,222z" fill="#2A7C7D"/>
    <path id="svg_5" d="m7012.9989,2737.49963c-40,-43 -13,-20 -29,-5l6,72l-179,36c-14,26 10,18 -45,30c-8,2 -47,4 -60,6c-37,4 -88,26 -95,-16l-289,0l4,-61c-27,33 -21,4 -36,64l-152,-11l-8,1340c65,4 125,3 190,2c28,0 67,-3 93,-2c93,3 37,-21 74,23c36,-71 99,-861 114,-957l35,-15c121,-19 412,-116 469,-180l29,549c1,-204 -18,-655 -5,-832c4,-59 17,-63 -11,-105l4,7l-6,86l-100,27l-3,-58z" fill="#5B97BF"/>
    <path id="svg_6" d="m1352.9989,3012.49963l-12,1941l292,32c17,-660 164,-1214 232,-1841c-240,-27 -341,-102 -461,-140l-51,8z" fill="#487EA1"/>
    <path id="svg_7" d="m580.9989,5498.49963c-1,60 11,28 -16,68c-76,-41 -13,-266 -52,-335c-21,84 6,185 8,274c-97,56 -306,25 -350,138c149,234 2604,248 2714,-15c-66,-82 -293,-109 -429,-122c86,79 159,56 198,161c-176,-1 -393,-60 -549,-100l-13,-143c-8,59 2,25 -19,47l-456,-14l2,-51l-33,179c-198,35 -353,61 -557,71c48,-100 198,-135 287,-185c16,-78 9,-299 -10,-366l4,349l-729,44z" fill="#D2D4D8"/>
    <path id="svg_8" d="m6024.9989,5497.49963c-87,17 -174,23 -269,44c-84,19 -180,29 -211,102c165,240 1731,174 2119,144c166,-13 545,-21 595,-165c-94,-62 -72,-37 -143,-66l-40,-22c-157,89 -169,23 -285,-41c-45,20 -512,-34 -634,-25l243,126c56,33 40,12 68,65c-69,47 -208,13 -302,0c-77,-10 -202,-23 -269,-53l-19,-147l-484,17l8,-96c-34,61 -10,165 -44,208c-55,56 -464,126 -555,96c44,-97 161,-103 222,-187z" fill="#D1D3D7"/>
    <path id="svg_9" d="m6795.9989,4299.49963l-62,21l144,1139l19,147c67,30 192,43 269,53c94,13 233,47 302,0c-28,-53 -12,-32 -68,-65l-243,-126l40,-1195l-55,0l-346,26z" fill="#372535"/>
    <path id="svg_10" d="m3972.9989,5449.49963c-20,30 -18,74 -23,122c-142,28 -410,112 -548,88c24,-78 162,-101 229,-173c-104,9 -203,20 -302,41c-95,21 -196,38 -227,116c99,171 925,176 1125,176c136,0 1036,-4 1127,-176c-55,-137 -413,-152 -567,-162c49,64 244,105 225,165c-180,30 -383,-56 -546,-56c-2,-60 -1,-148 -29,-189l-10,60c-85,-5 -408,16 -454,-12z" fill="#D2D4D8"/>
    <path id="svg_11" d="m6090.9989,4686.49963c-29,222 42,587 3,791l-69,20c-61,84 -178,90 -222,187c91,30 500,-40 555,-96c34,-43 10,-147 44,-208c-20,-110 31,-420 46,-551c15,-131 58,-434 51,-545l-418,7l10,395z" fill="#372535"/>
    <path id="svg_12" d="m1577.9989,809.49963l22,-3c5,-21 5,-25 8,-38c2,-63 15,-95 50,-140c84,-27 238,-33 307,16c99,4 229,95 271,139l-52,99c1,62 -11,18 12,57l148,3c138,6 285,-80 200,-230c-56,-99 -230,-167 -258,-235c-19,-45 -26,-233 -208,-270c-158,-33 -280,58 -324,147c-152,3 -448,-9 -482,137c-33,142 202,291 306,318z" fill="#FFA655"/>
    <path id="svg_13" d="m6635.9989,3243.49963l160,1056l346,-26l-8,-661l-29,-549c-57,64 -348,161 -469,180z" fill="#487EA1"/>
    <path id="svg_14" d="m3828.9989,1388.49963l-171,45c-16,33 -96,85 -137,133c-47,56 -103,121 -108,208c36,21 55,40 91,69c40,33 74,39 106,72c99,21 56,15 131,-34c25,112 78,165 124,254c-37,94 -71,152 -82,267c146,-55 158,-238 154,-421l53,-19c33,-25 21,-32 37,-59l497,-14l42,-8c37,15 12,-1 46,21c55,7 31,-41 23,-88c-11,-57 -21,-42 -24,-125c-2,-87 -5,-181 8,-265l-4,-8l3,463l-85,-20l-59,-477l-54,1c9,204 -360,206 -395,-18l-78,7l62,487l-89,-1c-44,-79 -61,-354 -91,-470z" fill="#FFA253"/>
    <path id="svg_15" d="m3681.9989,1126.49963l10,55c3,4 8,5 9,11c2,7 7,9 9,11c12,16 11,15 19,27l82,10c129,-51 -7,-65 175,-103c30,-113 -67,-98 -115,-154c-68,-80 -31,-162 49,-180c26,17 34,14 51,50l22,85c0,2 2,7 4,10c51,-90 -12,-87 76,-169c51,-48 106,-34 178,-18c-57,-55 -50,-27 -111,-57l29,-134c43,-112 543,-49 338,617l13,18c52,7 45,-10 85,0c18,5 38,25 83,38l66,-12l29,-47l-3,-94c-68,-80 -54,-12 -91,-107c-36,-94 -53,-62 -86,-125c56,-195 2,-386 -126,-466c-197,-123 -319,-19 -352,-9c-47,15 -44,-13 -114,-19c-198,-18 -347,232 -261,449c52,131 -14,-2 -22,207c-3,79 -12,22 -46,106z" fill="#1A212E"/>
    <path id="svg_16" d="m4207.9989,1064.49963l207,5c-52,58 -152,65 -207,-5zm230,-218c-3,-2 -9,-4 -11,-11c-3,-7 -8,-8 -12,-12c84,3 83,-6 87,77l-64,-54zm-241,-28c46,32 35,2 39,84c-17,-28 -13,-29 -43,-49c-22,13 -39,24 -62,38c14,-47 22,-58 66,-73zm182,-50c12,-27 14,-43 64,-43c41,-1 46,12 65,35l-129,8zm-393,369c49,-15 28,26 61,75l8,-29c54,87 135,108 253,97c41,-1 67,-7 102,-23c74,-36 22,-35 110,-52l-13,-18c205,-666 -295,-729 -338,-617l-29,134c61,30 54,2 111,57c-72,-16 -127,-30 -178,18c-88,82 -25,79 -76,169c-2,-3 -4,-8 -4,-10l-22,-85c-17,-36 -25,-33 -51,-50c-80,18 -117,100 -49,180c48,56 145,41 115,154z" fill="#A5534C"/>
    <path id="svg_17" d="m6060.9989,2064.49963c-27,87 25,422 50,529c54,7 115,44 157,67c2,2 6,3 7,8c1,6 6,8 7,10c1,4 13,41 14,43c44,26 8,3 27,34l-106,-21c45,37 32,8 63,66l10,63c15,-60 9,-31 36,-64l8,-21l281,0c48,-22 156,-29 196,-10l173,-36c16,-15 -11,-38 29,5c34,-46 43,-31 109,-55l-4,-7c26,-50 26,-3 16,-63c-76,-31 2,-13 -100,4c-187,31 -411,-78 -544,-190c-134,-113 -207,-199 -304,-356c-29,-47 -46,-102 -81,-140c-17,16 -9,2 -25,26c-23,35 -15,62 -19,108z" fill="#2D7172"/>
    <path id="svg_18" d="m4436.9989,5401.49963c28,41 27,129 29,189c163,0 366,86 546,56c19,-60 -176,-101 -225,-165l-52,0l52,-691l-58,2l-319,-7l-33,12c4,179 78,441 60,604z" fill="#372535"/>
    <path id="svg_19" d="m3630.9989,5486.49963c-67,72 -205,95 -229,173c138,24 406,-60 548,-88c5,-48 3,-92 23,-122c-14,-149 55,-469 59,-592c2,-85 -5,-63 -20,-75l-323,-4l-34,2l21,699l-45,7z" fill="#372535"/>
    <path id="svg_20" d="m1918.9989,928.49963c-29,-41 -24,-47 0,-84c27,35 34,44 0,84zm-218,-73l35,3c-2,56 5,88 -36,125c16,51 -14,27 29,58l-56,-29c12,-40 22,-59 14,-97c-14,-35 -14,-127 14,-60zm261,-51c-23,-7 -46,-13 -75,-14c-78,-3 -40,12 -81,-15c50,-33 130,-36 156,29zm-354,-36c63,-15 59,-20 111,11c-42,28 -24,-4 -119,27l-22,3c14,117 -20,228 18,341c14,43 35,78 65,104c61,52 80,18 86,91l16,-45c185,21 213,-55 284,-108c30,-145 60,-106 107,-161l36,-58c1,-2 4,-7 6,-10c58,0 113,10 148,-21l-148,-3c-52,-49 -16,-25 -61,-37c-11,72 0,48 -27,85l-23,-89l-12,79c-68,-5 -49,12 -47,-72c4,-199 -30,-54 -61,-261c-69,-49 -223,-43 -307,-16c-35,45 -48,77 -50,140z" fill="#FFAE9E"/>
    <path id="svg_21" d="m7736.9989,5407.49963c24,72 19,26 54,86c116,64 128,130 285,41c89,-66 163,-264 167,-432l8,-91l-130,-28c-370,-15 -511,25 -393,346c33,89 31,52 9,78z" fill="#936E7E"/>
    <path id="svg_22" d="m2527.9989,2079.49963c114,140 91,116 16,296c-24,58 -89,253 -128,294l-23,-75l-107,23c32,45 -32,-5 29,39l-53,27c-4,2 -9,5 -14,7c-45,9 -45,22 -83,37c0,46 40,2 95,16c55,36 51,39 136,23l-6,43c10,18 6,16 19,34c121,5 177,-103 237,-182c63,-83 118,-158 176,-255c66,-109 122,-151 57,-277c-38,-75 -111,-227 -170,-265c23,75 -20,75 -65,118c-27,25 -27,35 -48,58c-46,50 -4,23 -68,39z" fill="#FFAE9E"/>
    <path id="svg_23" d="m6251.9989,692.49963c49,-12 150,-32 203,-19l24,11c33,-48 9,-28 78,-39c34,-5 72,-8 106,-12c89,-12 143,-23 221,-43c92,5 276,-25 339,-65l-318,0c-80,-128 -123,-323 -437,-241c-304,78 -305,352 -216,408z" fill="#FF6A59"/>
    <path id="svg_24" d="m396.9989,2188.49963c48,0 40,-2 53,36c200,59 402,179 638,172c62,-51 183,-254 214,-338c-57,25 -85,-3 -150,-32c-62,-29 -94,-28 -99,-94l-78,179c-85,10 -398,-57 -504,-72l-28,-67c1,22 1,31 -3,51c-1,3 -5,12 -6,10c0,-1 -5,6 -7,9c-63,-42 3,-35 -41,-183c-6,378 -47,-47 -38,307l49,22z" fill="#FFAE9E"/>
    <path id="svg_25" d="m2091.9989,5424.49963l13,143c156,40 373,99 549,100c-39,-105 -112,-82 -198,-161l-76,-30l39,-494c-24,-29 37,-23 -40,-24l-307,11c-27,127 24,316 20,455z" fill="#FFA655"/>
    <path id="svg_26" d="m1305.9989,5105.49963c19,67 26,288 10,366c-89,50 -239,85 -287,185c204,-10 359,-36 557,-71l33,-179l45,-394c-30,-32 32,-11 -31,-27l-292,-32l-34,13l-1,139z" fill="#FFA655"/>
    <path id="svg_27" d="m2101.9989,2047.49963c-108,-9 -492,-29 -575,2c-7,576 426,494 531,316c52,-91 67,-209 44,-318z" fill="#68B5DD"/>
    <path id="svg_28" d="m4564.9989,2056.49963l-512,-9c15,217 52,454 266,452c253,-2 296,-217 246,-443z" fill="#539795"/>
    <path id="svg_29" d="m456.9989,1404.49963c17,44 25,136 16,192c-29,8 -62,12 -93,14c-85,5 -66,-1 -77,-18l-22,-644c-8,-81 7,-58 -39,-74c-29,56 5,631 15,725c-179,-30 -155,-286 -162,-523l-7,-155c-15,-42 7,-19 -31,-41c-20,38 -16,89 -14,131l17,401c15,217 113,234 322,242l4,205c44,148 -22,141 41,183c2,-3 7,-10 7,-9c1,2 5,-7 6,-10c4,-20 4,-29 3,-51l1,-144c-19,-41 -23,-125 -13,-182l91,-5c159,-27 190,-139 182,-322c-3,-81 6,-429 -47,-464c-38,51 -16,141 -13,203c11,269 60,471 -124,535l-24,-576c-6,-179 5,-136 -41,-158c-40,76 7,424 2,545z" fill="#AB534C"/>
    <path id="svg_30" d="m4874.9989,1979.49963c26,53 34,51 79,94l-162,418l-28,-64l-82,29c-20,31 23,11 -36,34c21,40 26,10 28,44c5,50 -40,11 -2,51c57,61 62,-70 117,54l12,4l36,-2c85,-33 231,-266 293,-373c91,-159 108,-172 -42,-394l-38,-46c-60,32 3,-5 -50,49c-18,18 -24,19 -41,35c-30,29 -33,58 -84,67z" fill="#AB534C"/>
    <path id="svg_31" d="m6793.9989,1065.49963c-44,70 -191,55 -239,-9l239,9zm-542,-373l12,134c31,-21 32,-30 83,-24c33,51 26,140 22,213c4,144 -1,141 55,246l16,14c111,45 152,61 296,49c70,2 137,-21 171,-65c51,-68 13,-150 29,-218l-37,41c-2,3 -5,6 -8,9c-23,21 1,12 -32,19c-33,-59 13,-51 -38,-103c-75,-12 -154,-31 -233,-12c-92,32 -50,61 -99,120c-28,-52 -43,-150 -51,-227c-16,-153 -5,-98 41,-204l-24,-11c-53,-13 -154,7 -203,19z" fill="#835B6A"/>
    <path id="svg_32" d="m3661.9989,2638.49963c53,-4 46,-2 68,-40c39,-54 73,-9 108,-121c-28,-28 -7,-1 -14,-45l-64,-18c-66,17 -7,-8 -43,27c-4,3 -14,15 -16,18l-15,21c-24,-87 -76,-177 -117,-256c-93,-176 -70,-98 -4,-244l-59,-34c-6,-5 -18,-19 -21,-22c-62,-53 -70,-22 -82,-111c-54,45 -96,154 -125,219c-52,113 0,170 55,244c91,122 217,280 329,362z" fill="#AB534C"/>
    <path id="svg_33" d="m2294.9989,1666.49963l-24,176c-35,46 9,21 -64,43c26,37 31,57 28,112c84,-15 75,-40 148,-59l40,76l41,-10c19,-17 -4,1 26,-19l105,-67c64,-48 66,-49 90,-137c-15,-73 -78,-157 -121,-213c-53,-69 -127,-96 -231,-115c-31,54 -42,144 -38,213z" fill="#FF6A59"/>
    <path id="svg_34" d="m1072.9989,1822.49963c3,3 7,4 9,10c1,7 13,16 16,19c51,66 78,83 150,125c8,5 29,19 39,21c38,10 -3,14 46,-1l17,-13c15,-18 -18,-27 21,-11l18,225c18,-51 10,-24 28,-48l5,-89l35,-129c5,-14 7,-30 11,-42c-58,-32 -3,5 -27,-40l-6,-406c-119,54 -161,5 -249,128c-32,44 -50,74 -79,121c-29,46 -73,85 -34,130z" fill="#FF6A59"/>
    <path id="svg_35" d="m6562.9989,864.49963l59,26l5,-33l16,-31c6,10 8,2 8,25c1,57 10,-8 -11,16l-8,38c-54,-2 -56,-5 -82,-43l-7,-33l20,35zm34,-177c56,4 57,14 74,39l-168,14c19,-37 25,-57 94,-53zm-118,-3c-46,106 -57,51 -41,204c8,77 23,175 51,227c49,-59 7,-88 99,-120c41,-28 140,-6 206,-11c-10,-34 -22,-62 -31,-93c-32,-108 -1,-92 5,-101c50,25 -2,0 22,38c24,56 53,37 89,8c-17,58 -2,53 -66,47c-2,6 -9,-2 -7,29c2,28 29,65 15,95c51,52 5,44 38,103c33,-7 9,2 32,-19c3,-3 6,-6 8,-9l37,-41l-31,-290c-53,1 -19,5 -31,-18l-69,-10l-48,14l29,-32c53,-24 66,-14 108,11c-12,-73 -31,-70 -10,-126c-78,20 -132,31 -221,43c-34,4 -72,7 -106,12c-69,11 -45,-9 -78,39z" fill="#FFAE9E"/>
    <path id="svg_36" d="m1533.9989,1833.49963c-3,83 -4,23 16,47l607,-35c3,-32 6,-64 9,-96c0,-4 5,-44 5,-44c7,-31 5,-16 16,-33c-17,-86 9,-174 11,-262l-31,4c-42,15 -20,-6 -31,59l-23,248c-52,-31 -82,-66 -143,-90c-4,2 -46,44 -58,53c-64,41 -52,6 -54,3c-3,-1 -7,-5 -8,-6c-2,-1 -7,-5 -9,-7c-2,-1 -6,-5 -9,-6l-52,-37l-92,65c-30,-38 -53,-204 -57,-275c-114,32 -32,7 -66,-5l10,-4l-41,421z" fill="#FF6A59"/>
    <path id="svg_37" d="m512.9989,5231.49963c39,69 -24,294 52,335c27,-40 15,-8 16,-68l-131,-3274c-13,-38 -5,-36 -53,-36c33,167 27,566 34,763c12,292 103,2161 82,2280z" fill="#A5534C"/>
    <path id="svg_38" d="m4611.9989,1902.49963c3,31 9,31 25,61l2,26c4,-20 42,-112 50,-129c33,32 50,57 76,88l63,-11c30,-53 46,-48 88,-83c32,-27 20,-21 42,-50c39,-47 -1,-20 58,-44c-33,-86 -91,-144 -151,-201c-37,-35 -49,-60 -99,-86c-41,-23 -92,-42 -147,-49c-13,84 -10,178 -8,265c3,83 13,68 24,125c8,47 32,95 -23,88z" fill="#FFA655"/>
    <path id="svg_39" d="m7704.9989,2746.49963c0,133 116,144 202,234c60,62 7,241 21,339c16,112 -21,-71 6,27c1,3 4,8 5,11c1,3 3,8 5,12l65,3l43,-12c-1,-227 -28,-310 64,-399c152,-147 177,-142 160,-266l-281,8c16,17 3,4 25,24c0,1 7,6 18,15l171,9c1,61 29,17 -95,116c-45,36 -76,60 -118,93c-44,-18 -100,-60 -139,-85c-4,-2 -75,-50 -75,-50c-18,-21 -16,-7 -15,-41c1,-44 -8,-11 14,-37c71,-6 40,-15 83,-19c-26,-36 21,-20 -65,-27c-15,-1 -60,3 -79,3c-17,23 -15,-33 -15,42z" fill="#835B6A"/>
    <path id="svg_40" d="m7736.9989,5407.49963c22,-26 24,11 -9,-78c-118,-321 23,-361 393,-346l130,28l-1,-77l-234,-1c-3,-57 -5,-84 12,-126l-6,-133l-106,-7c-70,10 -25,-18 -38,38l-2,208l-233,15c-59,129 8,393 94,479z" fill="#795A68"/>
    <path id="svg_41" d="m6431.9989,1604.49963c26,17 70,57 86,85c-19,38 -120,141 -29,290c97,-20 105,-128 154,-198c40,36 84,72 158,81c1,-94 -27,-136 -73,-194l51,-62c-6,-48 -16,-53 -54,-69l-54,30c-52,32 -97,40 -137,3c-55,-21 -75,-55 -102,34z" fill="#FF6A59"/>
    <path id="svg_42" d="m7915.9989,4667.49963l106,7c-37,-21 -36,30 -31,-138l18,-1164l-65,-3l-28,1298z" fill="#FFA959"/>
    <path id="svg_43" d="m5810.9989,2615.49963c1,5 209,372 293,166l34,71l-9,-63l109,39l6,-16l-51,-28l87,16c-31,-58 -18,-29 -63,-66l106,21c-19,-31 17,-8 -27,-34l-111,-61l83,0c-42,-23 -103,-60 -157,-67c-38,37 -24,32 -59,70l-54,-135l-187,87z" fill="#FFAE9E"/>
    <path id="svg_44" d="m7579.9989,2611.49963c24,16 49,33 72,54c61,55 20,2 53,81c0,-75 -2,-19 15,-42c19,0 64,-4 79,-3c86,7 39,-9 65,27c-43,4 -12,13 -83,19c92,122 151,75 198,45l59,-50c-11,-9 -18,-14 -18,-15c-22,-20 -9,-7 -25,-24l281,-8l-232,-4c-1,-2 0,-8 0,-6l0,-42c-96,11 -92,21 -155,-45c-40,-41 -66,-81 -102,-121c-63,22 -167,95 -207,134z" fill="#FFAE9E"/>
    <path id="svg_45" d="m2234.9989,1997.49963l4,164c5,97 36,268 126,310c21,-120 73,-345 58,-457l-40,-76c-73,19 -64,44 -148,59z" fill="#EE574C"/>
    <path id="svg_46" d="m4024.9989,1365.49963c35,224 404,222 395,18c-80,-36 -59,-15 -122,-73c-31,35 22,16 -54,17l-170,-18c-3,-48 -24,-32 -27,-36c3,59 18,70 -22,92z" fill="#AB534C"/>
    <path id="svg_47" d="m7673.9989,2333.49963c-15,17 -5,10 -32,33c-25,21 2,0 -26,19c-47,32 -150,108 -191,115c-15,31 -7,9 -10,47c74,45 72,98 165,64c40,-39 144,-112 207,-134l23,-32l-79,-122l-57,10z" fill="#589B98"/>
    <path id="svg_48" d="m3919.9989,1827.49963c15,-9 18,-24 47,0c-91,43 -17,7 -47,0zm-91,-439c30,116 47,391 91,470l89,1l-62,-487c-30,-23 -95,-17 -118,16z" fill="#418685"/>
    <path id="svg_49" d="m4540.9989,1832.49963c25,-18 -49,-64 46,-5l-46,5zm74,-416c-18,-15 -7,-9 -34,-21c-6,-2 -29,-10 -37,-12c-39,-10 -48,-10 -70,-1l59,477l85,20l-3,-463z" fill="#438583"/>
    <path id="svg_50" d="m1753.9989,1378.49963l-34,-2l37,76c33,78 90,177 101,235c58,-16 167,-283 180,-329l-5,-17c-67,23 -205,74 -279,37z" fill="#FFAE9E"/>
    <path id="svg_51" d="m6428.9989,1332.49963l105,238c40,37 85,29 137,-3l27,-69c26,-36 48,-80 53,-129l-24,-13l-7,27l-268,-50l-12,-58l-16,-14l5,71z" fill="#FFAE9E"/>
    <path id="svg_52" d="m2037.9989,1358.49963c-13,46 -122,313 -180,329c2,3 -10,38 54,-3c12,-9 54,-51 58,-53c61,24 91,59 143,90l23,-248c11,-65 -11,-44 31,-59l-92,-80c-34,10 -19,-1 -37,24z" fill="#FE8975"/>
    <path id="svg_53" d="m1471.9989,1827.49963c23,-23 -48,-35 20,-15l24,15c-20,7 -8,16 -44,0zm-37,-384l6,406l62,14c3,-5 8,-15 10,-12l21,-18l41,-421c-29,1 -50,-1 -78,5c-7,1 -23,6 -25,7c-45,16 -17,6 -37,19z" fill="#5B97BF"/>
    <path id="svg_54" d="m5668.9989,2478.49963c-16,48 -17,38 17,90c16,25 36,47 52,70l73,-23l187,-87c21,-24 32,-6 8,-75c-20,-59 -18,-46 -64,-52c-52,29 -69,32 -122,48c-25,7 -49,17 -71,23c-64,18 -11,21 -80,6z" fill="#589B98"/>
    <path id="svg_55" d="m1564.9989,1416.49963c34,12 -48,37 66,5c4,71 27,237 57,275l92,-65l52,37c3,1 7,5 9,6c2,2 7,6 9,7c1,1 5,5 8,6c-11,-58 -68,-157 -101,-235l-37,-76l2,-7c-31,-36 -3,-6 -44,-25c-33,31 -34,21 -52,63l-61,9z" fill="#FE8975"/>
    <path id="svg_56" d="m2084.9989,898.49963c18,-44 14,-28 34,-46l65,30l52,-99c-42,-44 -172,-135 -271,-139c31,207 65,62 61,261c-2,84 -21,67 47,72l12,-79z" fill="#AB534C"/>
    <path id="svg_57" d="m2186.9989,1672.49963l28,24c38,-33 -20,-5 20,-7c-13,36 -23,61 -19,107c-23,12 36,30 -50,0l0,55l61,14c67,-89 3,-146 68,-199c-4,-69 7,-159 38,-213l-21,-31l-114,-12c-2,88 -28,176 -11,262z" fill="#5499C2"/>
    <path id="svg_58" d="m1518.9989,1965.49963l-54,-7c13,-18 -30,-56 34,-25c29,14 6,-6 20,32zm647,-114l-9,-6l-607,35c-20,-24 -19,36 -16,-47l-21,18c-2,-3 -7,7 -10,12l-62,-14c24,45 -31,8 27,40c-4,12 -6,28 -11,42l-35,129l30,-77c4,-1 31,0 36,-2c35,-10 14,-2 31,-16c2,-4 10,-28 12,-31l26,-33c187,-10 376,-29 562,-7c33,37 11,14 31,57c18,-45 2,-42 46,-34c22,39 14,-6 4,51c39,50 8,116 39,193l-4,-164c3,-55 -2,-75 -28,-112c73,-22 29,3 64,-43l24,-176c-65,53 -1,110 -68,199l-61,-14z" fill="#C68788"/>
    <path id="svg_59" d="m6090.9989,4686.49963l-10,-395l418,-7l-12,-69c-37,-44 19,-20 -74,-23c-26,-1 -65,2 -93,2c-65,1 -125,2 -190,-2c-2,172 -45,14 -57,142l18,352z" fill="#487EA1"/>
    <path id="svg_60" d="m6308.9989,1417.49963c98,44 8,105 74,189l49,-2c27,-89 47,-55 102,-34l-105,-238c-71,25 -81,39 -120,85z" fill="#589B98"/>
    <path id="svg_61" d="m2078.9989,4899.49963l-7,70l307,-11l-1,-84c-87,-29 -198,5 -290,-4l-9,29z" fill="#487EA1"/>
    <path id="svg_62" d="m1746.9989,1345.49963l7,33c74,37 212,-14 279,-37l14,-149c-71,53 -99,129 -284,108l-16,45z" fill="#FB8F88"/>
    <path id="svg_63" d="m1052.9989,1932.49963c5,66 37,65 99,94c65,29 93,57 150,32l31,-62c-49,15 -8,11 -46,1c-10,-2 -31,-16 -39,-21c-72,-42 -99,-59 -150,-125c-3,-3 -15,-12 -16,-19c-2,-6 -6,-7 -9,-10c5,72 -1,48 -20,110z" fill="#FB8F88"/>
    <path id="svg_64" d="m2463.9989,2004.49963c15,22 46,52 64,75c64,-16 22,11 68,-39c21,-23 21,-33 48,-58c45,-43 88,-43 65,-118l-24,-83c-24,88 -26,89 -90,137l-105,67c-30,20 -7,2 -26,19z" fill="#FB8F88"/>
    <path id="svg_65" d="m6750.9989,1369.49963c-5,49 -27,93 -53,129c-15,71 -15,28 27,39c38,16 48,21 54,69c39,-45 41,-28 51,-87c6,-37 -11,-34 9,-68c25,-43 -15,-21 54,-20c-3,-3 -8,-11 -10,-8c-2,3 -45,-50 -101,-85l-31,31z" fill="#589B98"/>
    <polygon id="svg_66" points="6325.9989013671875,2799.4996337890625 6321.9989013671875,2860.4996337890625 6610.9989013671875,2860.4996337890625 6614.9989013671875,2778.4996337890625 6333.9989013671875,2778.4996337890625 " fill="#342533"/>
    <path id="svg_67" d="m3596.9989,1338.49963c28,-62 2,-20 40,-37c1,63 8,34 -20,56l14,44c57,-2 67,-37 91,-93l3,-43l-34,-54l-79,-4c-61,22 -55,15 -80,66c13,28 1,17 25,40c16,15 16,13 40,25z" fill="#1A212E"/>
    <path id="svg_68" d="m4792.9989,1209.49963l-27,23l-3,66l15,57l61,36c45,-35 40,-12 54,-73l-37,-14c19,-20 -10,-18 26,-24c43,-6 16,1 30,18l49,-36c-7,-7 -11,-16 -13,-14l-84,-52l-71,13z" fill="#1A212E"/>
    <path id="svg_69" d="m4827.9989,1937.49963l47,42c51,-9 54,-38 84,-67c17,-16 23,-17 41,-35c53,-54 -10,-17 50,-49l-34,-68c-59,24 -19,-3 -58,44c-22,29 -10,23 -42,50c-42,35 -58,30 -88,83z" fill="#994847"/>
    <path id="svg_70" d="m3688.9989,4778.49963l323,4l-7,-38c-30,-41 -58,-18 -178,-23c-49,-1 -88,-5 -138,-10l0,67z" fill="#237979"/>
    <path id="svg_71" d="m6263.9989,826.49963c12,104 16,119 54,185l51,4c4,-73 11,-162 -22,-213c-51,-6 -52,3 -83,24z" fill="#FEA897"/>
    <path id="svg_72" d="m3402.9989,1813.49963c12,89 20,58 82,111c3,3 15,17 21,22l59,34l45,-65c-32,-33 -66,-39 -106,-72c-36,-29 -55,-48 -91,-69l-10,39z" fill="#994847"/>
    <path id="svg_73" d="m6747.9989,2787.49963c44,13 3,-11 28,25c-37,40 -68,30 -130,29c5,-49 -11,-48 46,-57c0,0 55,2 56,3zm-133,-9l-4,82c7,42 58,20 95,16c13,-2 52,-4 60,-6c55,-12 31,-4 45,-30l0,-72c-40,-19 -148,-12 -196,10z" fill="#FEA867"/>
    <path id="svg_74" d="m4788.9989,2639.49963c-55,-124 -60,7 -117,-54c-38,-40 7,-1 2,-51c-2,-34 -7,-4 -28,-44c59,-23 16,-3 36,-34c-104,21 -54,31 -116,110l27,32c18,20 17,23 34,43c111,4 75,-58 162,-2z" fill="#736A70"/>
    <path id="svg_75" d="m4046.9989,1212.49963l0,61c3,4 24,-12 27,36l170,18c76,-1 23,18 54,-17l10,-30c-118,11 -199,-10 -253,-97l-8,29z" fill="#8C3B35"/>
    <polygon id="svg_76" points="6810.9989013671875,2768.4996337890625 6810.9989013671875,2840.4996337890625 6989.9989013671875,2804.4996337890625 6983.9989013671875,2732.4996337890625 " fill="#362936"/>
    <path id="svg_77" d="m6726.9989,1356.49963l9,-32c-144,12 -185,-4 -296,-49l12,58l268,50l7,-27z" fill="#FB8F88"/>
    <path id="svg_78" d="m3729.9989,2598.49963l11,-8l121,8c24,-60 -4,-40 57,-63c-12,-9 -11,-18 -20,-33c-36,-48 -13,-46 -75,-70c7,44 -14,17 14,45c-35,112 -69,67 -108,121z" fill="#835B6A"/>
    <path id="svg_79" d="m6587.9989,995.49963c79,-19 158,0 233,12c14,-30 -13,-67 -15,-95c-2,-31 5,-23 7,-29c-32,-32 -23,-3 -23,-55c-24,-38 28,-13 -22,-38c-6,9 -37,-7 -5,101c9,31 21,59 31,93c-66,5 -165,-17 -206,11z" fill="#F07872"/>
    <path id="svg_80" d="m4782.9989,1184.49963c-13,44 -9,15 10,25l71,-13l24,-28c-35,-45 -43,-66 -108,-78l3,94z" fill="#FFAA5D"/>
    <path id="svg_81" d="m6793.9989,1065.49963l-239,-9c48,64 195,79 239,9z" fill="#F8F5F6"/>
    <path id="svg_82" d="m7012.9989,2737.49963l3,58l100,-27l6,-86c-66,24 -75,9 -109,55z" fill="#362936"/>
    <path id="svg_83" d="m6243.9989,2812.49963c30,17 21,-21 24,16c-22,17 36,22 -15,10c-1,-1 -6,-3 -7,-3c-1,0 -5,-5 -8,-7l-109,-39l9,63l152,11l-10,-63l-87,-16l51,28z" fill="#3C2434"/>
    <path id="svg_84" d="m3724.9989,1265.49963l-3,43l27,24l78,-59c1,2 -14,-30 -16,-33l-82,-10c-15,17 -28,-25 -4,35z" fill="#FFA955"/>
    <path id="svg_85" d="m2318.9989,2799.49963l52,4l19,6l6,-43c-85,16 -81,13 -136,-23c-36,17 -16,-2 -55,38l56,30c3,2 8,5 12,8l46,-20z" fill="#D2AFAF"/>
    <path id="svg_86" d="m4207.9989,1064.49963c55,70 155,63 207,5l-207,-5z" fill="#F8F5F6"/>
    <path id="svg_87" d="m2318.9989,2799.49963l-46,20c-4,-3 -9,-6 -12,-8l-56,-30c39,-40 19,-21 55,-38c-55,-14 -95,30 -95,-16c-31,-5 -22,-10 -19,23c61,46 44,43 81,104c83,-21 77,-38 92,-55z" fill="#8E91AA"/>
    <path id="svg_88" d="m2156.9989,1845.49963l9,6l0,-55c86,30 27,12 50,0c-4,-46 6,-71 19,-107c-40,2 18,-26 -20,7l-28,-24c-11,17 -9,2 -16,33c0,0 -5,40 -5,44c-3,32 -6,64 -9,96z" fill="#6296BD"/>
    <path id="svg_89" d="m2084.9989,898.49963l23,89c27,-37 16,-13 27,-85c45,12 9,-12 61,37c-23,-39 -11,5 -12,-57l-65,-30c-20,18 -16,2 -34,46z" fill="#FB8F88"/>
    <path id="svg_90" d="m6645.9989,2841.49963c62,1 93,11 130,-29c-25,-36 16,-12 -28,-25c-1,-1 -56,-3 -56,-3c-57,9 -41,8 -46,57z" fill="#362936"/>
    <path id="svg_91" d="m6502.9989,740.49963l168,-14c-17,-25 -18,-35 -74,-39c-69,-4 -75,16 -94,53z" fill="#3C2434"/>
    <path id="svg_92" d="m3611.9989,1207.49963l79,4l1,-30l-10,-55c-68,-21 1,-36 -73,18c13,40 2,28 34,50l-31,13z" fill="#FFA959"/>
    <path id="svg_93" d="m4687.9989,1243.49963l-29,37l51,31c69,-15 -5,-24 53,-13l3,-66l-12,-1l-66,12z" fill="#FFA959"/>
    <path id="svg_94" d="m4523.9989,1889.49963c4,49 -5,54 19,79c5,-58 -14,-37 38,-46c21,30 11,-13 10,49l46,-8c-16,-30 -22,-30 -25,-61c-34,-22 -9,-6 -46,-21l-42,8z" fill="#B18D71"/>
    <path id="svg_95" d="m1686.9989,915.49963c8,38 -2,57 -14,97l56,29c-43,-31 -13,-7 -29,-58c41,-37 34,-69 36,-125l-35,-3c13,45 17,45 -14,60z" fill="#F07872"/>
    <path id="svg_96" d="m3740.9989,2590.49963c37,10 83,26 119,27c72,1 42,-23 31,-63c70,-10 41,6 58,-34l-50,-18c9,15 8,24 20,33c-61,23 -33,3 -57,63l-121,-8z" fill="#6C8473"/>
    <path id="svg_97" d="m302.9989,1592.49963c11,17 -8,23 77,18c31,-2 64,-6 93,-14c9,-56 1,-148 -16,-192l7,188l-161,0z" fill="#CD9492"/>
    <path id="svg_98" d="m1805.9989,775.49963c41,27 3,12 81,15c29,1 52,7 75,14c-26,-65 -106,-62 -156,-29z" fill="#8C3B35"/>
    <path id="svg_99" d="m1377.9989,2297.49963l39,-148c-18,24 -10,-3 -28,48l-18,-225c-39,-16 -6,-7 -21,11c31,60 31,235 28,314z" fill="#D2AFAF"/>
    <path id="svg_100" d="m4378.9989,768.49963l129,-8c-19,-23 -24,-36 -65,-35c-50,0 -52,16 -64,43z" fill="#2B232C"/>
    <path id="svg_101" d="m4130.9989,891.49963c23,-14 40,-25 62,-38c30,20 26,21 43,49c-4,-82 7,-52 -39,-84c-44,15 -52,26 -66,73z" fill="#69312D"/>
    <path id="svg_102" d="m1607.9989,768.49963c-3,13 -3,17 -8,38c95,-31 77,1 119,-27c-52,-31 -48,-26 -111,-11z" fill="#96473C"/>
    <path id="svg_103" d="m4501.9989,900.49963c-4,-83 -3,-74 -87,-77c4,4 9,5 12,12c2,7 8,9 11,11l64,54z" fill="#69312D"/>
    <path id="svg_104" d="m6785.9989,705.49963l19,18l69,10l20,-17c-42,-25 -55,-35 -108,-11z" fill="#2B232C"/>
    <path id="svg_105" d="m6295.9989,2721.49963c-1,-2 -13,-39 -14,-43c-1,-2 -6,-4 -7,-10c-1,-5 -5,-6 -7,-8l-83,0l111,61z" fill="#8D6D72"/>
    <path id="svg_106" d="m2247.9989,2690.49963c5,-2 10,-5 14,-7l53,-27c-61,-44 3,6 -29,-39l-59,58c2,2 17,12 21,15z" fill="#D2AFAF"/>
    <path id="svg_107" d="m6812.9989,883.49963c64,6 49,11 66,-47c-36,29 -65,48 -89,-8c0,52 -9,23 23,55z" fill="#784041"/>
    <path id="svg_108" d="m1918.9989,928.49963c34,-40 27,-49 0,-84c-24,37 -29,43 0,84z" fill="#4C2C32"/>
    <path id="svg_109" d="m2189.9989,1961.49963c-66,-37 -9,-37 -9,-38c9,18 8,6 9,38zm-40,-10l14,25c63,2 9,3 26,-15l10,7c10,-57 18,-12 -4,-51c-44,-8 -28,-11 -46,34z" fill="#FAAF75"/>
    <path id="svg_110" d="m6639.9989,867.49963l-13,-10l-5,33l-59,-26l-13,-2c26,38 28,41 82,43l8,-38z" fill="#69312D"/>
    <path id="svg_111" d="m1686.9989,915.49963c31,-15 27,-15 14,-60c-28,-67 -28,25 -14,60z" fill="#271A27"/>
    <path id="svg_112" d="m3596.9989,1338.49963l20,19c28,-22 21,7 20,-56c-38,17 -12,-25 -40,37z" fill="#B1ADB2"/>
    <path id="svg_113" d="m2370.9989,2803.49963l-52,-4c1,5 9,23 11,26l20,27c36,-41 -1,29 21,-49z" fill="#379CC9"/>
    <path id="svg_114" d="m1518.9989,1965.49963c-14,-38 9,-18 -20,-32c-64,-31 -21,7 -34,25l54,7z" fill="#FE9D39"/>
    <path id="svg_115" d="m4892.9989,1318.49963l19,-20c-14,-17 13,-24 -30,-18c-36,6 -7,4 -26,24l37,14z" fill="#8EAEB3"/>
    <path id="svg_116" d="m4547.9989,1973.49963l43,-2l-25,-41c-27,20 -30,-44 -18,43z" fill="#FE9D39"/>
    <path id="svg_117" d="m3724.9989,1265.49963c-24,-60 -11,-18 4,-35c-8,-12 -7,-11 -19,-27c-2,-2 -7,-4 -9,-11c-1,-6 -6,-7 -9,-11l-1,30l34,54z" fill="#8A5051"/>
    <path id="svg_118" d="m4542.9989,1968.49963l5,5c-12,-87 -9,-23 18,-43l25,41c1,-62 11,-19 -10,-49c-52,9 -33,-12 -38,46z" fill="#FAAF75"/>
    <path id="svg_119" d="m3919.9989,1827.49963c30,7 -44,43 47,0c-29,-24 -32,-9 -47,0z" fill="#1E9292"/>
    <path id="svg_120" d="m6670.9989,1567.49963l54,-30c-42,-11 -42,32 -27,-39l-27,69z" fill="#B28B90"/>
    <path id="svg_121" d="m1471.9989,1827.49963c36,16 24,7 44,0l-24,-15c-68,-20 3,-8 -20,15z" fill="#1FA0CC"/>
    <path id="svg_122" d="m2189.9989,1961.49963c-1,-32 0,-20 -9,-38c0,1 -57,1 9,38z" fill="#FE9D39"/>
    <path id="svg_123" d="m4814.9989,2706.49963l-5,-50l27,-15l-36,2c-1,35 -9,-6 0,30c9,34 6,20 14,33z" fill="#8EAEB3"/>
    <path id="svg_124" d="m4540.9989,1832.49963l46,-5c-95,-59 -21,-13 -46,5z" fill="#1E9292"/>
    <path id="svg_125" d="m6873.9989,733.49963c12,23 -22,19 31,18l-11,-35l-20,17z" fill="#B28B90"/>
    <path id="svg_126" d="m6626.9989,857.49963l13,10c21,-24 12,41 11,-16c0,-23 -2,-15 -8,-25l-16,31z" fill="#C68788"/>
    <path id="svg_127" d="m6243.9989,2812.49963l-6,16c3,2 7,7 8,7c1,0 6,2 7,3c51,12 -7,7 15,-10c-3,-37 6,1 -24,-16z" fill="#885A70"/>
    <path id="svg_128" d="m4753.9989,1231.49963l12,1l27,-23c-19,-10 -23,19 -10,-25l-29,47z" fill="#784041"/>
    <polygon id="svg_129" points="6804.9989013671875,723.4996337890625 6785.9989013671875,705.4996337890625 6756.9989013671875,737.4996337890625 " fill="#8A5051"/>
    <path id="svg_130" d="m1721.9989,1369.49963l-15,-35l-29,10c41,19 13,-11 44,25z" fill="#FEB6AA"/>
    <polygon id="svg_131" points="6549.9989013671875,862.4996337890625 6562.9989013671875,864.4996337890625 6542.9989013671875,829.4996337890625 " fill="#B0716E"/>
   </g>
  </g>
 </g>
</svg>