<svg width="1820.0000000000002" height="1610" xmlns="http://www.w3.org/2000/svg" clip-rule="evenodd">

 <g>
  <title>background</title>
  <rect fill="none" id="canvas_background" height="1612" width="1822" y="-1" x="-1"/>
 </g>
 <g>
  <title>Layer 1</title>
  <g id="Capa_x0020_1">
   <metadata transform="translate(0,-16.66666603088379) translate(0,-16.66666603088379) translate(0,-16.66666603088379) translate(0,-16.66666603088379) translate(-5133.33349609375,-633.3333129882812) " id="CorelCorpID_0Corel-Layer"/>
   <g id="_1714257700464">
    <path id="svg_1" d="m665.6665,160.00002l127,-3l8,230l98,-94c83,31 75,37 134,95l11,-233l126,7l4,438l-512,-11l4,-429zm-118,562l104,4l536,-1l95,-2l4,-678l-740,-7l1,684z" fill="black"/>
    <path id="svg_2" d="m1116.6665,999.00002c1,-12 5,-15 9,-21c172,2 103,27 117,219c77,-72 67,-90 162,-50l67,39l0,-195l142,1l-4,428l-507,-1l14,-420zm-130,536l737,3l-1,-678l-731,-8l-5,683z" fill="black"/>
    <path id="svg_3" d="m219.6665,992.00002l141,-1l1,195c119,-53 91,-117 228,11c16,-210 -60,-229 147,-217l-2,439l-511,1l-4,-428zm-110,534l736,14l-1,-686l-733,-1l-2,673z" fill="black"/>
   </g>
  </g>
 </g>
</svg>