<svg width="3020" height="1710" xmlns="http://www.w3.org/2000/svg" clip-rule="evenodd">

 <g>
  <title>background</title>
  <rect fill="none" id="canvas_background" height="1712" width="3022" y="-1" x="-1"/>
 </g>
 <g>
  <title>Layer 1</title>
  <g id="Capa_x0020_1">
   <metadata transform="translate(-157.15133666992188,-685.7512817382812) " fill="#ffffff" id="CorelCorpID_0Corel-Layer"/>
   <path id="svg_1" d="m2449.84866,575.24872c-92,164 -168,270 -289,438c-103,144 -185,281 -288,423l-1148,2l1,-795l1098,0l0,349l626,-417zm-1042,-140c5,-247 -56,-163 196,-202l1,-181l-570,11l1,170c250,39 189,-45 195,209l-571,-9l-152,-278l-464,11l1,543l488,208l3,706l1354,2c132,-52 104,-46 190,-168l643,-939c206,-305 259,-33 266,-359l-370,6c-91,130 -419,322 -553,441l-88,-159l-570,-12z" fill="#ffffff"/>
  </g>
 </g>
</svg>