<svg width="1960" height="1610" xmlns="http://www.w3.org/2000/svg" clip-rule="evenodd">

 <g>
  <title>background</title>
  <rect fill="none" id="canvas_background" height="1612" width="1962" y="-1" x="-1"/>
 </g>
 <g>
  <title>Layer 1</title>
  <g id="Capa_x0020_1">
   <metadata transform="translate(-5914.2900390625,-700.00048828125) " id="CorelCorpID_0Corel-Layer"/>
   <g id="_2341988259072">
    <path id="svg_1" d="m169.70996,251.99951c100,-21 116,64 226,26c68,-24 426,-58 501,-53c53,4 100,-89 180,-89c14,53 0,114 -18,165c-33,93 -19,57 -7,155c20,155 77,560 82,688c4,84 23,71 60,131c14,23 40,74 43,102c14,130 -149,-25 -236,34c-74,50 -132,41 -233,54c-262,34 -153,-4 -251,-10c-55,-3 -126,98 -199,64c-28,-39 -19,-113 -3,-163c28,-88 10,-53 -4,-142l-67,-686c-4,-100 -19,-71 -53,-137c-20,-40 -41,-90 -21,-139zm952,-28c24,-160 -58,-158 -158,-88c-85,59 -19,36 -134,40c-43,2 -110,14 -155,20c-109,14 -210,17 -307,47c-61,18 -214,-108 -245,9c-33,123 74,180 76,268l62,639c4,39 25,124 22,151c-2,15 -15,45 -19,68c-31,177 53,251 204,148c73,-51 50,-12 137,-3c59,6 114,-9 169,-15c53,-6 103,-9 156,-18c59,-10 93,-48 119,-53c32,-6 236,109 233,-45c-1,-48 -28,-100 -47,-134c-56,-102 -55,-33 -58,-122c-4,-96 -95,-766 -94,-774c2,-21 31,-82 39,-138z" stroke-linejoin="round" stroke-linecap="round" stroke-width="19.685" stroke="black" fill="black"/>
    <path id="svg_2" d="m1760.70996,1347.99951c-70,13 -93,-55 -146,-51c-74,7 1,27 -193,9c-84,-7 -66,-39 -101,-102c-7,-13 -34,-50 -38,-64l-60,-461c-14,-110 -46,-258 -20,-361c85,17 26,53 148,47c38,-1 131,13 177,18c49,6 132,12 174,25c79,24 81,-26 161,-26c-18,134 -61,59 -76,225l-58,517c-14,78 -15,38 14,105c13,30 22,81 18,119zm-122,0c0,0 202,148 162,-73c-20,-113 -42,-27 -24,-177c17,-134 29,-273 45,-405c15,-123 1,-127 42,-192c21,-33 46,-82 42,-123c-11,-97 -137,1 -193,-12l-380,-43c-66,-3 -75,-52 -152,-59c-60,75 -28,188 -19,269l72,580c7,72 22,64 53,118c18,32 31,84 48,109c59,3 166,25 214,20c42,-5 54,-29 90,-12z" stroke-linejoin="round" stroke-linecap="round" stroke-width="19.685" stroke="black" fill="black"/>
    <path id="svg_3" d="m576.70996,835.99951c-3,51 48,120 88,80c45,-46 -34,-86 -88,-80z" stroke-linejoin="round" stroke-linecap="round" stroke-width="19.685" stroke="black" fill="black"/>
    <path id="svg_4" d="m669.70996,816.99951c93,31 80,-89 11,-108c-17,34 -29,64 -11,108z" stroke-linejoin="round" stroke-linecap="round" stroke-width="19.685" stroke="black" fill="black"/>
    <path id="svg_5" d="m825.70996,816.99951c-54,-3 -117,47 -75,84c50,45 77,-45 75,-84z" stroke-linejoin="round" stroke-linecap="round" stroke-width="19.685" stroke="black" fill="black"/>
   </g>
  </g>
 </g>
</svg>