<svg width="1750" height="1719.9999999999998" xmlns="http://www.w3.org/2000/svg" clip-rule="evenodd">

 <g>
  <title>background</title>
  <rect fill="none" id="canvas_background" height="1722" width="1752" y="-1" x="-1"/>
 </g>
 <g>
  <title>Layer 1</title>
  <g id="Capa_x0020_1">
   <metadata transform="translate(-1250.0240478515625,-687.51318359375) " id="CorelCorpID_0Corel-Layer"/>
   <path id="svg_1" d="m1223.97595,1252.48682c113,-116 280,45 178,152c-105,112 -286,-41 -178,-152zm-902,0c113,-116 281,45 179,152c-106,112 -286,-41 -179,-152zm708,-717c337,-14 284,39 457,205c155,149 121,169 113,532c-140,-9 -52,-21 -137,-107c-72,-73 -226,-88 -312,14c-77,91 9,85 -128,93l7,-737zm-869,741c-63,-46 -31,71 -48,-97l10,-876l801,3l7,746c3,279 11,199 -45,224l-263,-3c-42,-104 -92,-183 -243,-164c-169,21 -111,122 -219,167zm-137,98l176,8c88,229 329,229 423,0l479,-1c87,230 329,230 423,1l175,-6c0,-134 -1,-267 1,-400c2,-208 -2,-182 -112,-288c-73,-71 -128,-134 -199,-202c-101,-96 -193,-55 -366,-64l0,-217l-1001,-4l1,1173z" fill="black"/>
  </g>
 </g>
</svg>