<svg width="1929.9999999999998" height="1890.0000000000002" xmlns="http://www.w3.org/2000/svg" clip-rule="evenodd">

 <g>
  <title>background</title>
  <rect fill="none" id="canvas_background" height="1892" width="1932" y="-1" x="-1"/>
 </g>
 <g>
  <title>Layer 1</title>
  <g id="Capa_x0020_1">
   <metadata transform="translate(-4480.021484375,-2500.011962890625) " id="CorelCorpID_0Corel-Layer"/>
   <path id="svg_1" d="m868.97852,1319.98804c107,136 -78,198 163,209l6,-206l105,-5c47,61 1,-22 24,70c4,13 14,72 15,75c30,66 -72,57 124,66l6,-206l105,-5c47,61 0,-22 24,70c3,13 14,72 15,75c30,66 -72,57 124,66l6,-206l139,-4l-4,353l-1268,-2c77,-114 275,-339 416,-350zm-514,-1029c413,-8 344,-29 347,143l-209,0l0,129c213,0 206,-52 209,145l-209,0l0,129c213,0 206,-53 209,145l-209,0l0,129l198,0c19,157 -55,187 -132,261c-76,73 -119,135 -213,183l9,-1264zm-135,1512l1634,0l0,-611l-1030,-2l-1,-1030l-562,0l-41,0l0,1643z" fill="black"/>
  </g>
 </g>
</svg>