<svg width="1900.0000000000002" height="1840" xmlns="http://www.w3.org/2000/svg" clip-rule="evenodd">

 <g>
  <title>background</title>
  <rect fill="none" id="canvas_background" height="1842" width="1902" y="-1" x="-1"/>
 </g>
 <g>
  <title>Layer 1</title>
  <g id="Capa_x0020_1">
   <metadata transform="translate(-4260.0009765625,-2360.00048828125) " id="CorelCorpID_0Corel-Layer"/>
   <path id="svg_1" d="m769.99902,652.99951c-156,-65 -204,-182 -319,-105c15,170 90,58 320,278c162,154 146,211 146,483c-423,120 -173,-8 -435,151c-150,91 -307,3 -292,293c265,-8 -24,-90 230,-129c210,-33 76,-16 215,-129c270,0 114,10 326,-75c171,35 88,61 325,79c138,198 43,96 234,126c191,31 11,121 241,128c-8,-261 -167,-210 -309,-278c-111,-54 -3,-72 -194,-110c-145,-29 -81,11 -217,-77c-14,-199 51,-274 156,-356c281,-223 284,-27 252,-236c-89,-47 -20,-1 -60,-10c-75,-17 -21,13 -73,-24c112,-71 208,-84 354,4c-79,248 -241,203 -331,296c228,207 453,-195 515,-359c-149,-57 -367,-200 -562,-79c-100,63 -69,120 -121,240c-26,61 -87,106 -151,154c-259,-175 20,-382 -281,-564c-194,-117 -472,-49 -625,75c45,256 240,673 571,465c-137,-190 -130,23 -294,-132c-58,-55 -115,-187 -129,-273c176,-134 511,-92 508,164z" fill="black"/>
  </g>
 </g>
</svg>