<svg width="1670" height="1590" xmlns="http://www.w3.org/2000/svg" clip-rule="evenodd">

 <g>
  <title>background</title>
  <rect fill="none" id="canvas_background" height="1592" width="1672" y="-1" x="-1"/>
 </g>
 <g>
  <title>Layer 1</title>
  <g id="Capa_x0020_1">
   <metadata transform="translate(-5666.67626953125,-683.33447265625) " id="CorelCorpID_0Corel-Layer"/>
   <g id="_1241373849472">
    <path id="svg_1" d="m1128.32373,1266.66553c-157,205 -570,141 -737,-47c-151,-170 -206,-552 2,-690c76,22 710,659 735,737zm-165,-358c44,-87 151,-125 47,-253c-96,-118 -178,-29 -263,41l-351,-353c-374,144 -340,905 140,1113c220,96 484,69 677,-77c207,-156 -129,-315 -250,-471z" fill="black"/>
    <path id="svg_2" d="m910.32373,97.66553c9,215 142,13 381,249c51,50 102,126 129,199c57,152 -14,187 120,200c175,-219 -365,-756 -630,-648z" fill="black"/>
    <path id="svg_3" d="m1318.32373,744.66553c11,-235 -170,-416 -402,-416c-23,195 68,67 204,190c146,134 2,226 198,226z" fill="black"/>
   </g>
  </g>
 </g>
</svg>