<svg width="1690" height="1680" xmlns="http://www.w3.org/2000/svg" clip-rule="evenodd">

 <g>
  <title>background</title>
  <rect fill="none" id="canvas_background" height="1682" width="1692" y="-1" x="-1"/>
 </g>
 <g>
  <title>Layer 1</title>
  <g id="Capa_x0020_1">
   <metadata transform="translate(-1585.835693359375,-3514.554931640625) " id="CorelCorpID_0Corel-Layer"/>
   <path id="svg_1" d="m1074.16431,931.44507c75,77 142,142 222,221c83,83 183,119 153,272c-153,103 -202,-13 -294,-106c-63,-64 -190,-175 -231,-246l150,-141zm-699,-543c-117,-14 -114,-51 -151,-143c94,3 146,33 151,143zm527,237c-34,-244 51,-410 296,-399l-202,218l199,227c130,-55 133,-151 257,-200c13,270 -170,317 -415,311c-82,118 -440,444 -585,601c-95,102 -107,113 -233,41c-26,-147 62,-180 129,-247c134,-134 447,-475 554,-552zm-805,-386l140,251c168,3 203,-14 389,228c-198,274 -605,461 -507,723c73,195 312,133 405,39c80,-80 228,-263 323,-307c86,99 169,174 261,268c341,348 587,-55 375,-275c-62,-64 -210,-217 -271,-259c338,-124 398,-278 295,-628c-89,31 -105,64 -165,127l-104,90c-34,10 -174,5 4,-164c61,-58 110,-102 157,-164c-626,-229 -579,367 -665,462c-77,-7 -120,-75 -174,-129c-101,-103 -68,-77 -79,-249l-239,-145c-74,34 -107,77 -145,132z" fill="black"/>
  </g>
 </g>
</svg>