<svg width="1969.9999999999998" height="1720" xmlns="http://www.w3.org/2000/svg" clip-rule="evenodd">

 <g>
  <title>background</title>
  <rect fill="none" id="canvas_background" height="1722" width="1972" y="-1" x="-1"/>
 </g>
 <g>
  <title>Layer 1</title>
  <g id="Capa_x0020_1">
   <metadata transform="translate(0.10205078125,0) translate(-7501.10205078125,-600.088134765625) " id="CorelCorpID_0Corel-Layer"/>
   <g id="_1714258078880">
    <path id="svg_1" d="m264,284.91187l42,-3l1501,3l0,1218l-160,2l-1240,0l-143,-2l0,-1218zm-140,1364l1948,0l-124,0l0,-1511l56,0l-1834,0l-46,0l0,1511z" fill="black"/>
    <path id="svg_2" d="m1168,956.91187c29,-75 136,-262 -32,-215c-44,13 -219,455 -447,108c-48,-74 -55,-96 -81,-167c322,-121 534,-121 855,0c-139,335 -166,295 -295,274zm-753,-326l274,487l695,3l283,-486c-408,-250 -854,-267 -1252,-4z" fill="black"/>
   </g>
  </g>
 </g>
</svg>