<svg width="1020" height="1630" xmlns="http://www.w3.org/2000/svg" clip-rule="evenodd">

 <g>
  <title>background</title>
  <rect fill="none" id="canvas_background" height="1632" width="1022" y="-1" x="-1"/>
 </g>
 <g>
  <title>Layer 1</title>
  <g id="Capa_x0020_1">
   <metadata transform="translate(-5385.56298828125,-642.839111328125) " id="CorelCorpID_0Corel-Layer"/>
   <g id="_1714259507744">
    <path id="svg_1" d="m486.43701,1137.16089l118,0l10,68l-138,0l10,-68zm-265,-392c0,-279 347,-433 552,-228c204,204 50,552 -229,552c-173,0 -323,-151 -323,-324zm254,-579l138,-1l-10,68l-118,1l-10,-68zm-84,-43c0,39 22,179 68,179l51,0l0,51c-179,4 -358,186 -358,358c0,154 38,262 160,352c51,38 60,33 105,57c-39,164 -52,153 93,153l0,120c0,53 85,17 85,85c0,27 -23,51 -51,51c-68,0 -31,-85 -85,-85c-59,0 -55,153 102,153c112,0 154,-198 17,-230l0,-94c147,0 132,10 94,-153c79,-42 125,-57 179,-128c213,-278 -2,-633 -273,-639l0,-51c76,0 80,9 100,-72c38,-163 54,-133 -253,-133c-16,0 -34,15 -34,26z" fill="black"/>
    <path id="svg_2" d="m255.43701,728.16089c0,300 323,358 323,273c0,-41 -49,-35 -84,-44c-135,-30 -202,-169 -153,-297c20,-54 83,-103 -27,-103c-8,33 -25,40 -39,72c-11,26 -20,65 -20,99z" fill="black"/>
    <path id="svg_3" d="m476.43701,745.16089c0,41 27,68 68,68c59,0 -11,-34 98,31c18,10 25,13 43,24c97,59 98,-17 70,-43l-115,-65c-58,-34 -18,-83 -96,-83c-41,0 -68,27 -68,68z" fill="black"/>
   </g>
  </g>
 </g>
</svg>